SplineFontDB: 3.0
FontName: FifteenTwenty
FullName: FifteenTwenty
FamilyName: FifteenTwenty
Weight: Regular
Copyright: FifteenTwenty Regular\nMade in 2016 by Stewart C. Russell - scruss.com\nLicence: Dual-licensed CC0/WTFPL (srsly)\n
UComments: "Derived from character stroke coordinates from the Commodore 1520 plotter ROM. This has been documented here - http://e4aws.silverdr.com/hacks/6500_1/ - and here - https://github.com/Project-64/reloaded/tree/master/1520/rom+AAoACgAA-This font contains none of the original Commodore coordinates, as they were in a format unusable with current computer systems.+AAoACgAA-Coverage: ASCII."
Version: 001.002
ItalicAngle: 0
UnderlinePosition: -100
UnderlineWidth: 50
Ascent: 800
Descent: 200
InvalidEm: 0
LayerCount: 2
Layer: 0 0 "Back" 1
Layer: 1 0 "Fore" 0
XUID: [1021 836 1415973427 4842568]
FSType: 0
OS2Version: 0
OS2_WeightWidthSlopeOnly: 0
OS2_UseTypoMetrics: 1
CreationTime: 1461377156
ModificationTime: 1461469513
PfmFamily: 17
TTFWeight: 400
TTFWidth: 5
LineGap: 90
VLineGap: 0
OS2TypoAscent: 0
OS2TypoAOffset: 1
OS2TypoDescent: 0
OS2TypoDOffset: 1
OS2TypoLinegap: 90
OS2WinAscent: 0
OS2WinAOffset: 1
OS2WinDescent: 0
OS2WinDOffset: 1
HheadAscent: 0
HheadAOffset: 1
HheadDescent: 0
HheadDOffset: 1
OS2Vendor: 'PfEd'
MarkAttachClasses: 1
DEI: 91125
LangName: 1033
DesignSize: 120
Encoding: UnicodeFull
UnicodeInterp: none
NameList: AGL For New Fonts
DisplaySize: -48
AntiAlias: 1
FitToEm: 1
WinInfo: 0 17 10
BeginPrivate: 0
EndPrivate
TeXData: 1 12582912 0 838860 419430 279620 643944 1048576 279620 783286 444596 497025 792723 393216 433062 380633 303038 157286 324010 404750 52429 2506097 1059062 262144
BeginChars: 1114112 103

StartChar: exclam
Encoding: 33 33 0
Width: 576
VWidth: 200
Flags: W
HStem: 200 42<262 314> 293 42<262 314> 386 42<262 314> 758 42<262 314>
VStem: 220 42<242 293 428 758> 314 42<242 293 428 758>
LayerCount: 2
Back
Fore
SplineSet
242 800 m 1
 334 800 l 2
 346 800 356 791 356 779 c 2
 356 407 l 2
 356 395 346 386 334 386 c 2
 244 386 l 2
 243 386 243 386 242 386 c 0
 237 386 229 389 226 392 c 0
 223 395 220 402 220 407 c 0
 220 408 220 409 220 410 c 2
 220 779 l 2
 220 791 230 800 242 800 c 1
262 758 m 1
 262 428 l 1
 314 428 l 1
 314 758 l 1
 262 758 l 1
242 335 m 0
 334 335 l 2
 346 335 356 326 356 314 c 2
 356 221 l 2
 356 209 346 200 334 200 c 2
 244 200 l 2
 243 200 243 200 242 200 c 0
 237 200 229 203 226 206 c 0
 223 209 220 216 220 221 c 0
 220 222 220 223 220 224 c 2
 220 314 l 2
 220 326 230 335 242 335 c 0
262 293 m 1
 262 242 l 1
 314 242 l 1
 314 293 l 1
 262 293 l 1
EndSplineSet
Validated: 1
EndChar

StartChar: quotedbl
Encoding: 34 34 1
Width: 576
VWidth: 200
Flags: W
HStem: 665 135<174 216 360 402>
VStem: 174 42<665.007 799.993> 360 42<665.007 799.993>
LayerCount: 2
Back
Fore
SplineSet
195 800 m 0
 207 800 216 791 216 779 c 0
 216 686 l 2
 216 674 207 665 195 665 c 0
 183 665 174 674 174 686 c 0
 174 779 l 2
 174 790 184 800 195 800 c 0
381 800 m 0
 393 800 402 791 402 779 c 0
 402 686 l 2
 402 674 393 665 381 665 c 0
 369 665 360 674 360 686 c 0
 360 779 l 2
 360 790 370 800 381 800 c 0
EndSplineSet
Validated: 1
EndChar

StartChar: numbersign
Encoding: 35 35 2
Width: 576
VWidth: 200
Flags: W
HStem: 386 42<81.0066 174 216 360 402 494.993> 572 42<81.0066 174 216 360 402 494.993>
VStem: 174 42<293.007 386 428 572 614 706.993> 360 42<293.007 386 428 572 614 706.993>
LayerCount: 2
Back
Fore
SplineSet
195 707 m 0
 207 707 216 698 216 686 c 0
 216 614 l 1
 360 614 l 1
 360 686 l 2
 360 698 369 707 381 707 c 0
 393 707 402 698 402 686 c 0
 402 614 l 1
 474 614 l 2
 486 614 495 605 495 593 c 0
 495 581 486 572 474 572 c 0
 402 572 l 1
 402 428 l 1
 474 428 l 2
 486 428 495 419 495 407 c 0
 495 395 486 386 474 386 c 0
 402 386 l 1
 402 314 l 2
 402 302 393 293 381 293 c 0
 369 293 360 302 360 314 c 0
 360 386 l 1
 216 386 l 1
 216 314 l 2
 216 302 207 293 195 293 c 0
 183 293 174 302 174 314 c 0
 174 386 l 1
 102 386 l 2
 90 386 81 395 81 407 c 0
 81 419 90 428 102 428 c 0
 174 428 l 1
 174 572 l 1
 102 572 l 2
 90 572 81 581 81 593 c 0
 81 605 90 614 102 614 c 0
 174 614 l 1
 174 686 l 2
 174 697 184 707 195 707 c 0
216 572 m 1
 216 428 l 1
 360 428 l 1
 360 572 l 1
 216 572 l 1
EndSplineSet
Validated: 1
EndChar

StartChar: dollar
Encoding: 36 36 3
Width: 576
VWidth: 200
Flags: W
HStem: 200 21G<282 294> 293 42<174.007 267 309 372> 479 42<204 267 309 372> 665 42<204 267 309 401.993> 780 20G<282.5 294>
VStem: 267 42<200.007 293 335 479 521 665 707 799.993>
LayerCount: 2
Back
Fore
SplineSet
288 800 m 0
 300 800 309 792 309 780 c 0
 309 707 l 1
 381 707 l 2
 393 707 402 698 402 686 c 0
 402 674 393 665 381 665 c 0
 309 665 l 1
 309 521 l 1
 381 521 l 2
 386 521 393 518 396 515 c 2
 489 422 l 2
 492 419 495 412 495 407 c 0
 495 402 492 395 489 392 c 2
 396 299 l 2
 393 296 386 293 381 293 c 2
 309 293 l 1
 309 221 l 2
 309 209 300 200 288 200 c 0
 276 200 267 209 267 221 c 0
 267 293 l 1
 195 293 l 2
 183 293 174 302 174 314 c 0
 174 326 183 335 195 335 c 0
 267 335 l 1
 267 479 l 1
 195 479 l 2
 190 479 183 482 180 485 c 2
 87 578 l 2
 84 581 81 588 81 593 c 0
 81 598 84 605 87 608 c 2
 180 701 l 2
 183 704 190 707 195 707 c 2
 267 707 l 1
 267 780 l 2
 267 791 277 800 288 800 c 0
204 665 m 1
 132 593 l 1
 204 521 l 1
 267 521 l 1
 267 665 l 1
 204 665 l 1
309 479 m 1
 309 335 l 1
 372 335 l 1
 444 407 l 1
 372 479 l 1
 309 479 l 1
EndSplineSet
Validated: 1
EndChar

StartChar: percent
Encoding: 37 37 4
Width: 576
VWidth: 200
Flags: W
HStem: 293 42<402 453> 386 42<402 453> 572 42<123 174> 665 42<123 174>
VStem: 81 42<614 665> 174 42<614 665> 360 42<335 386> 453 42<335 386>
LayerCount: 2
Back
Fore
SplineSet
195 707 m 2
 200 707 207 704 210 701 c 0
 213 698 216 691 216 686 c 0
 216 685 216 684 216 683 c 2
 216 593 l 2
 216 581 207 572 195 572 c 2
 102 572 l 2
 90 572 81 581 81 593 c 2
 81 686 l 2
 81 698 90 707 102 707 c 2
 192 707 l 2
 193 707 194 707 195 707 c 2
474 707 m 0
 486 707 495 698 495 686 c 0
 495 681 493 674 489 671 c 2
 117 299 l 2
 114 296 107 293 102 293 c 0
 90 293 81 302 81 314 c 0
 81 319 84 326 87 329 c 2
 459 701 l 2
 462 704 469 707 474 707 c 0
123 665 m 1
 123 614 l 1
 174 614 l 1
 174 665 l 1
 123 665 l 1
381 428 m 0
 382 428 383 428 384 428 c 2
 474 428 l 2
 486 428 495 419 495 407 c 2
 495 314 l 2
 495 302 486 293 474 293 c 2
 381 293 l 2
 369 293 360 302 360 314 c 2
 360 404 l 2
 360 405 360 406 360 407 c 0
 360 412 363 419 366 422 c 0
 369 425 376 428 381 428 c 0
402 386 m 1
 402 335 l 1
 453 335 l 1
 453 386 l 1
 402 386 l 1
EndSplineSet
Validated: 1
EndChar

StartChar: ampersand
Encoding: 38 38 5
Width: 576
VWidth: 200
Flags: W
HStem: 200 42<204 279> 780 20G<192.5 197.5>
VStem: 81 42<323 398 602 677> 267 42<602 677>
LayerCount: 2
Back
Fore
SplineSet
195 800 m 0
 200 800 207 797 210 794 c 2
 303 701 l 2
 306 698 309 691 309 686 c 2
 309 593 l 2
 309 588 306 581 303 578 c 2
 225 500 l 1
 381 344 l 1
 459 422 l 2
 462 425 469 428 474 428 c 0
 486 428 495 419 495 407 c 0
 495 402 492 395 489 392 c 2
 411 314 l 1
 489 236 l 2
 493 233 495 226 495 221 c 0
 495 209 486 200 474 200 c 0
 469 200 462 202 459 206 c 2
 381 284 l 1
 303 206 l 2
 300 203 293 200 288 200 c 2
 195 200 l 2
 190 200 183 203 180 206 c 2
 87 299 l 2
 84 302 81 309 81 314 c 2
 81 407 l 2
 81 412 84 419 87 422 c 2
 165 500 l 1
 87 578 l 2
 84 581 81 588 81 593 c 2
 81 686 l 2
 81 691 84 698 87 701 c 2
 180 794 l 2
 183 797 190 800 195 800 c 0
195 749 m 1
 123 677 l 1
 123 602 l 1
 195 530 l 1
 267 602 l 1
 267 677 l 1
 195 749 l 1
195 470 m 1
 123 398 l 1
 123 323 l 1
 204 242 l 1
 279 242 l 1
 351 314 l 1
 195 470 l 1
EndSplineSet
Validated: 1
EndChar

StartChar: quotesingle
Encoding: 39 39 6
Width: 576
VWidth: 200
Flags: W
HStem: 572 228<267 309>
VStem: 267 42<572.007 799.993>
LayerCount: 2
Back
Fore
SplineSet
288 800 m 0
 300 800 309 791 309 779 c 0
 309 593 l 2
 309 581 300 572 288 572 c 0
 276 572 267 581 267 593 c 0
 267 779 l 2
 267 790 277 800 288 800 c 0
EndSplineSet
Validated: 1
EndChar

StartChar: parenleft
Encoding: 40 40 7
Width: 576
VWidth: 200
Flags: W
HStem: 200 42<297 401.993> 758 42<297 401.993>
VStem: 174 42<323 677>
LayerCount: 2
Back
Fore
SplineSet
288 800 m 0
 381 800 l 2
 393 800 402 791 402 779 c 0
 402 767 393 758 381 758 c 0
 297 758 l 1
 216 677 l 1
 216 323 l 1
 297 242 l 1
 381 242 l 2
 393 242 402 233 402 221 c 0
 402 209 393 200 381 200 c 0
 288 200 l 2
 283 200 276 203 273 206 c 2
 180 299 l 2
 177 302 174 309 174 314 c 2
 174 686 l 2
 174 691 177 698 180 701 c 2
 273 794 l 2
 276 797 283 800 288 800 c 0
EndSplineSet
Validated: 1
EndChar

StartChar: parenright
Encoding: 41 41 8
Width: 576
VWidth: 200
Flags: W
HStem: 200 42<174.007 279> 758 42<174.007 279>
VStem: 360 42<323 677>
LayerCount: 2
Back
Fore
SplineSet
195 800 m 0
 288 800 l 2
 293 800 300 797 303 794 c 2
 396 701 l 2
 399 698 402 691 402 686 c 2
 402 314 l 2
 402 309 399 302 396 299 c 2
 303 206 l 2
 300 203 293 200 288 200 c 2
 195 200 l 2
 183 200 174 209 174 221 c 0
 174 233 183 242 195 242 c 0
 279 242 l 1
 360 323 l 1
 360 677 l 1
 279 758 l 1
 195 758 l 2
 183 758 174 767 174 779 c 0
 174 791 183 800 195 800 c 0
EndSplineSet
Validated: 1
EndChar

StartChar: asterisk
Encoding: 42 42 9
Width: 576
VWidth: 200
Flags: W
VStem: 267 42<293.007 449 551 706.993>
LayerCount: 2
Back
Fore
SplineSet
288 707 m 0
 300 707 309 698 309 686 c 0
 309 551 l 1
 459 701 l 2
 462 704 469 707 474 707 c 0
 486 707 495 698 495 686 c 0
 495 681 492 674 489 671 c 2
 318 500 l 1
 489 329 l 2
 492 326 495 319 495 314 c 0
 495 302 486 293 474 293 c 0
 469 293 462 296 459 299 c 2
 309 449 l 1
 309 314 l 2
 309 302 300 293 288 293 c 0
 276 293 267 302 267 314 c 0
 267 449 l 1
 117 299 l 2
 114 296 107 293 102 293 c 0
 90 293 81 302 81 314 c 0
 81 319 84 326 87 329 c 2
 258 500 l 1
 87 671 l 2
 84 674 81 681 81 686 c 0
 81 698 90 707 102 707 c 0
 107 707 114 704 117 701 c 2
 267 551 l 1
 267 686 l 2
 267 697 277 707 288 707 c 0
EndSplineSet
Validated: 1
EndChar

StartChar: plus
Encoding: 43 43 10
Width: 576
VWidth: 200
Flags: W
HStem: 479 42<81.0066 267 309 494.993>
VStem: 267 42<293.007 479 521 706.993>
LayerCount: 2
Back
Fore
SplineSet
288 707 m 0
 300 707 309 698 309 686 c 0
 309 521 l 1
 474 521 l 2
 486 521 495 512 495 500 c 0
 495 488 486 479 474 479 c 0
 309 479 l 1
 309 314 l 2
 309 302 300 293 288 293 c 0
 276 293 267 302 267 314 c 0
 267 479 l 1
 102 479 l 2
 90 479 81 488 81 500 c 0
 81 512 90 521 102 521 c 0
 267 521 l 1
 267 686 l 2
 267 697 277 707 288 707 c 0
EndSplineSet
Validated: 1
EndChar

StartChar: comma
Encoding: 44 44 11
Width: 576
VWidth: 200
Flags: W
HStem: 107 21G<235 243.5> 200 42<262 284> 293 42<262 313>
VStem: 220 42<242 293> 313 42<242 293>
LayerCount: 2
Back
Fore
SplineSet
241 335 m 1
 334 335 l 2
 346 335 355 326 355 314 c 2
 355 224 l 2
 355 223 356 222 356 221 c 0
 356 215 352 207 347 204 c 2
 256 113 l 2
 253 110 246 107 241 107 c 0
 229 107 220 116 220 128 c 0
 220 133 224 140 227 143 c 2
 284 200 l 1
 241 200 l 2
 229 200 220 209 220 221 c 2
 220 314 l 2
 220 326 229 335 241 335 c 1
262 293 m 1
 262 242 l 1
 313 242 l 1
 313 293 l 1
 262 293 l 1
EndSplineSet
Validated: 1
EndChar

StartChar: hyphen
Encoding: 45 45 12
Width: 576
VWidth: 200
Flags: W
HStem: 479 42<81.0066 494.993>
LayerCount: 2
Back
Fore
SplineSet
102 521 m 0
 474 521 l 2
 486 521 495 512 495 500 c 0
 495 488 486 479 474 479 c 0
 102 479 l 2
 90 479 81 488 81 500 c 0
 81 512 90 521 102 521 c 0
EndSplineSet
Validated: 1
EndChar

StartChar: period
Encoding: 46 46 13
Width: 576
VWidth: 200
Flags: W
HStem: 200 42<262 314> 293 42<262 314>
VStem: 220 42<242 293> 314 42<242 293>
LayerCount: 2
Back
Fore
SplineSet
242 335 m 0
 334 335 l 2
 346 335 356 326 356 314 c 2
 356 221 l 2
 356 209 346 200 334 200 c 2
 244 200 l 2
 243 200 243 200 242 200 c 0
 237 200 229 203 226 206 c 0
 223 209 220 216 220 221 c 0
 220 222 220 223 220 224 c 2
 220 314 l 2
 220 326 230 335 242 335 c 0
262 293 m 1
 262 242 l 1
 314 242 l 1
 314 293 l 1
 262 293 l 1
EndSplineSet
Validated: 1
EndChar

StartChar: slash
Encoding: 47 47 14
Width: 576
VWidth: 200
Flags: W
HStem: 200 21G<49 57.5>
LayerCount: 2
Back
Fore
SplineSet
520 707 m 0
 521 707 l 0
 533 707 542 698 542 686 c 0
 542 681 539 674 535 671 c 2
 70 206 l 2
 67 202 60 200 55 200 c 0
 43 200 34 209 34 221 c 0
 34 226 37 233 41 236 c 2
 506 701 l 2
 509 704 515 707 520 707 c 0
EndSplineSet
Validated: 1
EndChar

StartChar: zero
Encoding: 48 48 15
Width: 576
VWidth: 200
Flags: W
HStem: 200 42<204 372> 758 42<204 372>
VStem: 81 42<365 677> 453 42<323 635>
LayerCount: 2
Back
Fore
SplineSet
195 800 m 2
 381 800 l 2
 386 800 393 797 396 794 c 2
 487 703 l 2
 491 700 495 693 495 687 c 0
 495 686 l 0
 495 314 l 2
 495 309 492 302 489 299 c 2
 396 206 l 2
 393 203 386 200 381 200 c 2
 195 200 l 2
 190 200 183 203 180 206 c 2
 90 297 l 2
 85 300 81 308 81 314 c 0
 81 315 81 316 81 317 c 2
 81 686 l 2
 81 691 84 698 87 701 c 2
 180 794 l 2
 183 797 190 800 195 800 c 2
204 758 m 1
 123 677 l 1
 123 365 l 1
 444 686 l 1
 372 758 l 1
 204 758 l 1
453 635 m 1
 132 314 l 1
 204 242 l 1
 372 242 l 1
 453 323 l 1
 453 635 l 1
EndSplineSet
Validated: 1
EndChar

StartChar: one
Encoding: 49 49 16
Width: 576
VWidth: 200
Flags: W
HStem: 200 42<174.007 267 309 401.993> 780 20G<284.5 294>
VStem: 267 42<242 728>
LayerCount: 2
Back
Fore
SplineSet
287 800 m 0
 288 800 l 0
 300 800 309 792 309 780 c 2
 309 242 l 1
 381 242 l 2
 393 242 402 233 402 221 c 0
 402 209 393 200 381 200 c 0
 291 200 l 2
 290 200 289 200 288 200 c 0
 287 200 286 200 285 200 c 2
 195 200 l 2
 183 200 174 209 174 221 c 0
 174 233 183 242 195 242 c 0
 267 242 l 1
 267 728 l 1
 210 671 l 2
 207 667 200 665 195 665 c 0
 183 665 174 674 174 686 c 0
 174 691 176 698 180 701 c 2
 273 794 l 2
 276 797 282 800 287 800 c 0
EndSplineSet
Validated: 1
EndChar

StartChar: two
Encoding: 50 50 17
Width: 576
VWidth: 200
Flags: W
HStem: 200 42<153 494.993> 758 42<204 372>
VStem: 453 42<602 677>
LayerCount: 2
Back
Fore
SplineSet
195 800 m 2
 381 800 l 2
 386 800 393 797 396 794 c 2
 489 701 l 2
 492 698 495 691 495 686 c 2
 495 593 l 2
 495 588 492 581 489 578 c 2
 153 242 l 1
 474 242 l 2
 486 242 495 233 495 221 c 0
 495 209 486 200 474 200 c 0
 102 200 l 2
 90 200 81 209 81 221 c 0
 81 226 84 233 87 236 c 2
 453 602 l 1
 453 677 l 1
 372 758 l 1
 204 758 l 1
 117 671 l 2
 114 668 107 665 102 665 c 0
 90 665 81 674 81 686 c 0
 81 691 84 698 87 701 c 2
 180 794 l 2
 183 797 190 800 195 800 c 2
EndSplineSet
Validated: 1
EndChar

StartChar: three
Encoding: 51 51 18
Width: 576
VWidth: 200
Flags: W
HStem: 200 42<204 372> 479 42<267.007 372> 758 42<204 372>
VStem: 453 42<323 398 602 677>
CounterMasks: 1 e0
LayerCount: 2
Back
Fore
SplineSet
195 800 m 0
 381 800 l 2
 386 800 393 797 396 794 c 2
 489 701 l 2
 492 698 495 691 495 686 c 2
 495 593 l 2
 495 588 492 581 489 578 c 2
 411 500 l 1
 489 422 l 2
 492 419 495 412 495 407 c 2
 495 314 l 2
 495 309 492 302 489 299 c 2
 396 206 l 2
 393 203 386 200 381 200 c 2
 195 200 l 2
 190 200 183 203 180 206 c 2
 87 299 l 2
 84 302 81 309 81 314 c 0
 81 326 90 335 102 335 c 0
 107 335 114 332 117 329 c 2
 204 242 l 1
 372 242 l 1
 453 323 l 1
 453 398 l 1
 372 479 l 1
 288 479 l 2
 276 479 267 488 267 500 c 0
 267 512 276 521 288 521 c 0
 372 521 l 1
 453 602 l 1
 453 677 l 1
 372 758 l 1
 204 758 l 1
 117 671 l 2
 114 668 107 665 102 665 c 0
 90 665 81 674 81 686 c 0
 81 691 84 698 87 701 c 2
 180 794 l 2
 183 797 190 800 195 800 c 0
EndSplineSet
Validated: 1
EndChar

StartChar: four
Encoding: 52 52 19
Width: 576
VWidth: 200
Flags: W
HStem: 200 21G<375 387> 386 42<123 360 402 494.993> 780 20G<377.5 387>
VStem: 81 42<428 491> 360 42<200.007 386 428 728>
LayerCount: 2
Back
Fore
SplineSet
380 800 m 0
 381 800 l 0
 393 800 402 792 402 780 c 2
 402 428 l 1
 474 428 l 2
 486 428 495 419 495 407 c 0
 495 395 486 386 474 386 c 0
 402 386 l 1
 402 221 l 2
 402 209 393 200 381 200 c 0
 369 200 360 209 360 221 c 0
 360 386 l 1
 102 386 l 2
 90 386 81 395 81 407 c 2
 81 500 l 2
 81 505 84 512 87 515 c 2
 366 794 l 2
 369 797 375 800 380 800 c 0
360 728 m 1
 123 491 l 1
 123 428 l 1
 360 428 l 1
 360 728 l 1
EndSplineSet
Validated: 1
EndChar

StartChar: five
Encoding: 53 53 20
Width: 576
VWidth: 200
Flags: W
HStem: 200 42<204 372> 572 42<123 372> 758 42<123 494.993>
VStem: 81 42<614 758> 453 42<323 491>
LayerCount: 2
Back
Fore
SplineSet
102 800 m 0
 474 800 l 2
 486 800 495 791 495 779 c 0
 495 767 486 758 474 758 c 0
 123 758 l 1
 123 614 l 1
 381 614 l 2
 386 614 393 611 396 608 c 2
 489 515 l 2
 492 512 495 505 495 500 c 2
 495 314 l 2
 495 309 492 302 489 299 c 2
 396 206 l 2
 393 203 386 200 381 200 c 2
 195 200 l 2
 190 200 183 203 180 206 c 2
 87 299 l 2
 84 302 81 309 81 314 c 0
 81 326 90 335 102 335 c 0
 107 335 114 332 117 329 c 2
 204 242 l 1
 372 242 l 1
 453 323 l 1
 453 491 l 1
 372 572 l 1
 102 572 l 2
 90 572 81 581 81 593 c 2
 81 779 l 2
 81 791 90 800 102 800 c 0
EndSplineSet
Validated: 1
EndChar

StartChar: six
Encoding: 54 54 21
Width: 576
VWidth: 200
Flags: W
HStem: 200 42<204 372> 572 42<204 372> 758 42<204 372>
VStem: 81 42<323 491 551 677> 453 42<323 491>
LayerCount: 2
Back
Fore
SplineSet
195 800 m 0
 381 800 l 2
 386 800 393 797 396 794 c 2
 489 701 l 2
 492 698 495 691 495 686 c 0
 495 674 486 665 474 665 c 0
 469 665 462 668 459 671 c 2
 372 758 l 1
 204 758 l 1
 123 677 l 1
 123 551 l 1
 180 608 l 2
 183 611 190 614 195 614 c 2
 381 614 l 2
 386 614 393 611 396 608 c 2
 489 515 l 2
 492 512 495 505 495 500 c 2
 495 314 l 2
 495 309 492 302 489 299 c 2
 396 206 l 2
 393 203 386 200 381 200 c 2
 195 200 l 2
 190 200 183 203 180 206 c 2
 87 299 l 2
 84 302 81 309 81 314 c 2
 81 497 l 2
 81 498 81 499 81 500 c 0
 81 501 81 502 81 503 c 2
 81 686 l 2
 81 691 84 698 87 701 c 2
 180 794 l 2
 183 797 190 800 195 800 c 0
204 572 m 1
 123 491 l 1
 123 323 l 1
 204 242 l 1
 372 242 l 1
 453 323 l 1
 453 491 l 1
 372 572 l 1
 204 572 l 1
EndSplineSet
Validated: 1
EndChar

StartChar: seven
Encoding: 55 55 22
Width: 576
VWidth: 200
Flags: W
HStem: 200 21G<96 104.5> 758 42<81.0066 453>
VStem: 453 42<602 758>
LayerCount: 2
Back
Fore
SplineSet
102 800 m 0
 474 800 l 2
 486 800 495 791 495 779 c 2
 495 593 l 2
 495 588 492 581 489 578 c 2
 117 206 l 2
 114 202 107 200 102 200 c 0
 90 200 81 209 81 221 c 0
 81 226 83 233 87 236 c 2
 453 602 l 1
 453 758 l 1
 102 758 l 2
 90 758 81 767 81 779 c 0
 81 791 90 800 102 800 c 0
EndSplineSet
Validated: 1
EndChar

StartChar: eight
Encoding: 56 56 23
Width: 576
VWidth: 200
Flags: W
HStem: 200 42<204 372> 479 42<204 372> 758 42<204 372>
VStem: 81 42<323 398 602 677> 453 42<323 398 602 677>
CounterMasks: 1 e0
LayerCount: 2
Back
Fore
SplineSet
195 800 m 1
 381 800 l 2
 386 800 393 797 396 794 c 2
 489 701 l 2
 492 698 495 691 495 686 c 2
 495 593 l 2
 495 588 492 581 489 578 c 2
 411 500 l 1
 489 422 l 2
 492 419 495 412 495 407 c 2
 495 314 l 2
 495 309 492 302 489 299 c 2
 396 206 l 2
 393 203 386 200 381 200 c 2
 195 200 l 2
 190 200 183 203 180 206 c 2
 87 299 l 2
 84 302 81 309 81 314 c 2
 81 407 l 2
 81 412 84 419 87 422 c 2
 165 500 l 1
 87 578 l 2
 84 581 81 588 81 593 c 2
 81 686 l 2
 81 691 84 698 87 701 c 2
 180 794 l 2
 183 797 190 800 195 800 c 1
204 758 m 1
 123 677 l 1
 123 602 l 1
 204 521 l 1
 372 521 l 1
 453 602 l 1
 453 677 l 1
 372 758 l 1
 204 758 l 1
204 479 m 1
 123 398 l 1
 123 323 l 1
 204 242 l 1
 372 242 l 1
 453 323 l 1
 453 398 l 1
 372 479 l 1
 204 479 l 1
EndSplineSet
Validated: 1
EndChar

StartChar: nine
Encoding: 57 57 24
Width: 576
VWidth: 200
Flags: W
HStem: 200 42<204 372> 479 42<204 372> 758 42<204 372>
VStem: 81 42<602 677> 453 42<323 542 602 677>
CounterMasks: 1 e0
LayerCount: 2
Back
Fore
SplineSet
195 800 m 0
 381 800 l 2
 386 800 393 797 396 794 c 2
 489 701 l 2
 492 698 495 691 495 686 c 2
 495 596 l 2
 495 595 495 594 495 593 c 0
 495 592 495 592 495 591 c 2
 495 314 l 2
 495 309 492 302 489 299 c 2
 396 206 l 2
 393 203 386 200 381 200 c 2
 195 200 l 2
 190 200 183 203 180 206 c 2
 87 299 l 2
 84 302 81 309 81 314 c 0
 81 326 90 335 102 335 c 0
 107 335 114 332 117 329 c 2
 204 242 l 1
 372 242 l 1
 453 323 l 1
 453 542 l 1
 396 485 l 2
 393 482 386 479 381 479 c 2
 195 479 l 2
 190 479 183 482 180 485 c 2
 87 578 l 2
 84 581 81 588 81 593 c 2
 81 686 l 2
 81 691 84 698 87 701 c 2
 180 794 l 2
 183 797 190 800 195 800 c 0
204 758 m 1
 123 677 l 1
 123 602 l 1
 204 521 l 1
 372 521 l 1
 453 602 l 1
 453 677 l 1
 372 758 l 1
 204 758 l 1
EndSplineSet
Validated: 1
EndChar

StartChar: colon
Encoding: 58 58 25
Width: 576
VWidth: 200
Flags: W
HStem: 293 42<262 314> 386 42<262 314> 572 42<262 314> 665 42<262 314>
VStem: 220 42<335 386 614 665> 314 42<335 386 614 665>
LayerCount: 2
Back
Fore
SplineSet
242 707 m 1
 334 707 l 2
 346 707 356 698 356 686 c 2
 356 593 l 2
 356 581 346 572 334 572 c 2
 244 572 l 2
 243 572 243 572 242 572 c 0
 237 572 229 575 226 578 c 0
 223 581 220 588 220 593 c 0
 220 594 220 596 220 597 c 2
 220 686 l 2
 220 698 230 707 242 707 c 1
262 665 m 1
 262 614 l 1
 314 614 l 1
 314 665 l 1
 262 665 l 1
242 428 m 1
 334 428 l 2
 346 428 356 419 356 407 c 2
 356 314 l 2
 356 302 346 293 334 293 c 2
 244 293 l 2
 243 293 243 293 242 293 c 0
 237 293 229 296 226 299 c 0
 223 302 220 309 220 314 c 0
 220 315 220 316 220 317 c 2
 220 407 l 2
 220 419 230 428 242 428 c 1
262 386 m 1
 262 335 l 1
 314 335 l 1
 314 386 l 1
 262 386 l 1
EndSplineSet
Validated: 1
EndChar

StartChar: semicolon
Encoding: 59 59 26
Width: 576
VWidth: 200
Flags: W
HStem: 200 21G<235 243.5> 293 42<262 284> 386 42<262 314> 572 42<262 314> 665 42<262 314>
VStem: 220 42<335 386 614 665> 314 42<335 386 614 665>
LayerCount: 2
Back
Fore
SplineSet
241 707 m 1
 334 707 l 2
 346 707 356 698 356 686 c 2
 356 596 l 2
 356 595 356 594 356 593 c 0
 356 588 353 581 350 578 c 0
 349 578 l 0
 346 575 339 572 334 572 c 0
 333 572 332 572 331 572 c 2
 241 572 l 2
 229 572 220 581 220 593 c 2
 220 686 l 2
 220 698 229 707 241 707 c 1
262 665 m 1
 262 614 l 1
 314 614 l 1
 314 665 l 1
 262 665 l 1
241 428 m 0
 334 428 l 2
 346 428 356 419 356 407 c 2
 356 317 l 2
 356 316 356 315 356 314 c 0
 356 308 353 300 348 297 c 2
 256 206 l 2
 253 202 246 200 241 200 c 0
 229 200 220 209 220 221 c 0
 220 226 223 233 227 236 c 2
 284 293 l 1
 241 293 l 2
 229 293 220 302 220 314 c 2
 220 407 l 2
 220 419 229 428 241 428 c 0
262 386 m 1
 262 335 l 1
 314 335 l 1
 314 386 l 1
 262 386 l 1
EndSplineSet
Validated: 1
EndChar

StartChar: less
Encoding: 60 60 27
Width: 576
VWidth: 200
Flags: W
HStem: 200 21G<425.5 434> 780 20G<424.5 434>
VStem: 127 321
LayerCount: 2
Back
Fore
SplineSet
427 800 m 0
 428 800 l 0
 440 800 448 792 448 780 c 0
 448 775 446 767 442 764 c 2
 178 500 l 1
 442 236 l 2
 446 233 449 226 449 221 c 0
 449 209 440 200 428 200 c 0
 423 200 416 202 413 206 c 2
 134 485 l 2
 131 488 127 495 127 500 c 0
 127 505 131 512 134 515 c 2
 413 794 l 2
 416 797 422 800 427 800 c 0
EndSplineSet
Validated: 1
EndChar

StartChar: equal
Encoding: 61 61 28
Width: 576
VWidth: 200
Flags: W
HStem: 386 42<127.007 448.993> 572 42<127.007 448.993>
VStem: 127 322<386 428 572 614>
LayerCount: 2
Back
Fore
SplineSet
148 614 m 0
 428 614 l 2
 440 614 449 605 449 593 c 0
 449 581 440 572 428 572 c 0
 148 572 l 2
 136 572 127 581 127 593 c 0
 127 605 136 614 148 614 c 0
148 428 m 0
 428 428 l 2
 440 428 449 419 449 407 c 0
 449 395 440 386 428 386 c 0
 148 386 l 2
 136 386 127 395 127 407 c 0
 127 419 136 428 148 428 c 0
EndSplineSet
Validated: 1
EndChar

StartChar: greater
Encoding: 62 62 29
Width: 576
VWidth: 200
Flags: W
HStem: 200 21G<142 150.5> 780 20G<142 150.5>
VStem: 127 322
LayerCount: 2
Back
Fore
SplineSet
148 800 m 0
 153 800 160 798 163 794 c 2
 443 515 l 2
 446 512 449 505 449 500 c 0
 449 495 446 488 443 485 c 2
 163 206 l 2
 160 202 153 200 148 200 c 0
 136 200 127 209 127 221 c 0
 127 226 130 233 134 236 c 2
 398 500 l 1
 134 764 l 2
 130 767 127 775 127 780 c 0
 127 792 136 800 148 800 c 0
EndSplineSet
Validated: 1
EndChar

StartChar: question
Encoding: 63 63 30
Width: 576
VWidth: 200
Flags: W
HStem: 200 21G<282 294> 479 42<309 372> 758 42<204 372>
VStem: 267 42<200.007 334.993 386.007 479> 453 42<602 677>
LayerCount: 2
Back
Fore
SplineSet
195 800 m 1
 381 800 l 2
 386 800 393 797 396 794 c 2
 489 701 l 2
 492 698 495 691 495 686 c 2
 495 593 l 2
 495 588 492 581 489 578 c 2
 396 485 l 2
 393 482 386 479 381 479 c 2
 309 479 l 1
 309 407 l 2
 309 395 300 386 288 386 c 0
 276 386 267 395 267 407 c 0
 267 500 l 2
 267 512 276 521 288 521 c 2
 372 521 l 1
 453 602 l 1
 453 677 l 1
 372 758 l 1
 204 758 l 1
 117 671 l 2
 114 668 107 665 102 665 c 0
 90 665 81 674 81 686 c 0
 81 691 84 698 87 701 c 2
 180 794 l 2
 183 797 190 800 195 800 c 1
288 335 m 0
 300 335 309 326 309 314 c 0
 309 221 l 2
 309 209 300 200 288 200 c 0
 276 200 267 209 267 221 c 0
 267 314 l 2
 267 325 277 335 288 335 c 0
EndSplineSet
Validated: 1
EndChar

StartChar: at
Encoding: 64 64 31
Width: 576
VWidth: 200
Flags: W
HStem: 200 42<204 494.993> 293 42<216 372> 572 42<216 360> 665 42<204 372>
VStem: 81 42<323 584> 174 42<335 572> 360 42<386.007 572> 453 42<416 584>
LayerCount: 2
Back
Fore
SplineSet
195 707 m 1
 381 707 l 2
 386 707 393 704 396 701 c 2
 489 608 l 2
 492 605 495 598 495 593 c 2
 495 407 l 2
 495 402 492 395 489 392 c 2
 396 299 l 2
 393 296 386 293 381 293 c 2
 195 293 l 2
 183 293 174 302 174 314 c 2
 174 593 l 2
 174 605 183 614 195 614 c 2
 381 614 l 2
 393 614 402 605 402 593 c 2
 402 407 l 2
 402 395 393 386 381 386 c 0
 369 386 360 395 360 407 c 0
 360 572 l 1
 216 572 l 1
 216 335 l 1
 372 335 l 1
 453 416 l 1
 453 584 l 1
 372 665 l 1
 204 665 l 1
 123 584 l 1
 123 323 l 1
 204 242 l 1
 474 242 l 2
 486 242 495 233 495 221 c 0
 495 209 486 200 474 200 c 0
 195 200 l 2
 190 200 183 203 180 206 c 2
 87 299 l 2
 84 302 81 309 81 314 c 2
 81 593 l 2
 81 598 84 605 87 608 c 2
 180 701 l 2
 183 704 190 707 195 707 c 1
EndSplineSet
Validated: 1
EndChar

StartChar: A
Encoding: 65 65 32
Width: 576
VWidth: 200
Flags: W
HStem: 200 21G<96 108 468 480> 479 42<123 453> 780 20G<285.5 290.5>
VStem: 81 42<200.007 479 521 584> 453 42<200.007 479 521 584>
LayerCount: 2
Back
Fore
SplineSet
288 800 m 0
 293 800 300 797 303 794 c 2
 489 608 l 2
 492 605 495 598 495 593 c 2
 495 503 l 2
 495 502 495 501 495 500 c 0
 495 499 495 498 495 497 c 2
 495 221 l 2
 495 209 486 200 474 200 c 0
 462 200 453 209 453 221 c 0
 453 479 l 1
 123 479 l 1
 123 221 l 2
 123 209 114 200 102 200 c 0
 90 200 81 209 81 221 c 0
 81 497 l 2
 81 498 81 499 81 500 c 0
 81 501 81 503 81 504 c 2
 81 593 l 2
 81 598 84 605 87 608 c 2
 273 794 l 2
 276 797 283 800 288 800 c 0
288 749 m 1
 123 584 l 1
 123 521 l 1
 453 521 l 1
 453 584 l 1
 288 749 l 1
EndSplineSet
Validated: 1
EndChar

StartChar: B
Encoding: 66 66 33
Width: 576
VWidth: 200
Flags: W
HStem: 200 42<123 372> 479 42<123 372> 758 42<123 372>
VStem: 81 42<242 479 521 758> 453 42<323 398 602 677>
CounterMasks: 1 e0
LayerCount: 2
Back
Fore
SplineSet
102 800 m 0
 381 800 l 2
 386 800 393 797 396 794 c 2
 489 701 l 2
 492 698 495 691 495 686 c 2
 495 593 l 2
 495 588 492 581 489 578 c 2
 411 500 l 1
 489 422 l 2
 492 419 495 412 495 407 c 2
 495 314 l 2
 495 309 492 302 489 299 c 2
 396 206 l 2
 393 203 386 200 381 200 c 2
 105 200 l 2
 104 200 103 200 102 200 c 0
 97 200 90 203 87 206 c 0
 84 209 81 216 81 221 c 0
 81 222 81 223 81 224 c 2
 81 497 l 2
 81 498 81 499 81 500 c 0
 81 501 81 503 81 504 c 2
 81 779 l 2
 81 791 90 800 102 800 c 0
123 758 m 1
 123 521 l 1
 372 521 l 1
 453 602 l 1
 453 677 l 1
 372 758 l 1
 123 758 l 1
123 479 m 1
 123 242 l 1
 372 242 l 1
 453 323 l 1
 453 398 l 1
 372 479 l 1
 123 479 l 1
EndSplineSet
Validated: 1
EndChar

StartChar: C
Encoding: 67 67 34
Width: 576
VWidth: 200
Flags: W
HStem: 200 42<204 372> 758 42<204 372>
VStem: 81 42<323 677>
LayerCount: 2
Back
Fore
SplineSet
195 800 m 2
 381 800 l 2
 386 800 393 797 396 794 c 2
 489 701 l 2
 492 698 495 691 495 686 c 0
 495 674 486 665 474 665 c 0
 469 665 462 668 459 671 c 2
 372 758 l 1
 204 758 l 1
 123 677 l 1
 123 323 l 1
 204 242 l 1
 372 242 l 1
 459 329 l 2
 462 332 469 335 474 335 c 0
 486 335 495 326 495 314 c 0
 495 309 492 302 489 299 c 2
 396 206 l 2
 393 203 386 200 381 200 c 2
 195 200 l 2
 190 200 183 203 180 206 c 2
 87 299 l 2
 84 302 81 309 81 314 c 2
 81 686 l 2
 81 691 84 698 87 701 c 2
 180 794 l 2
 183 797 190 800 195 800 c 2
EndSplineSet
Validated: 1
EndChar

StartChar: D
Encoding: 68 68 35
Width: 576
VWidth: 200
Flags: W
HStem: 200 42<123 372> 758 42<123 372>
VStem: 81 42<242 758> 453 42<323 677>
LayerCount: 2
Back
Fore
SplineSet
102 800 m 0
 381 800 l 2
 386 800 393 797 396 794 c 2
 489 701 l 2
 492 698 495 691 495 686 c 2
 495 314 l 2
 495 309 492 302 489 299 c 2
 396 206 l 2
 393 203 386 200 381 200 c 2
 105 200 l 2
 104 200 103 200 102 200 c 0
 97 200 90 203 87 206 c 0
 84 209 81 216 81 221 c 0
 81 222 81 223 81 224 c 2
 81 779 l 2
 81 791 90 800 102 800 c 0
123 758 m 1
 123 242 l 1
 372 242 l 1
 453 323 l 1
 453 677 l 1
 372 758 l 1
 123 758 l 1
EndSplineSet
Validated: 1
EndChar

StartChar: E
Encoding: 69 69 36
Width: 576
VWidth: 200
Flags: W
HStem: 200 42<123 494.993> 479 42<123 401.993> 758 42<123 494.993>
VStem: 81 42<242 479 521 758>
CounterMasks: 1 e0
LayerCount: 2
Back
Fore
SplineSet
102 800 m 1
 474 800 l 2
 486 800 495 791 495 779 c 0
 495 767 486 758 474 758 c 0
 123 758 l 1
 123 521 l 1
 381 521 l 2
 393 521 402 512 402 500 c 0
 402 488 393 479 381 479 c 0
 123 479 l 1
 123 242 l 1
 474 242 l 2
 486 242 495 233 495 221 c 0
 495 209 486 200 474 200 c 0
 102 200 l 2
 90 200 81 209 81 221 c 2
 81 497 l 2
 81 498 81 499 81 500 c 0
 81 501 81 503 81 504 c 2
 81 779 l 2
 81 791 90 800 102 800 c 1
EndSplineSet
Validated: 1
EndChar

StartChar: F
Encoding: 70 70 37
Width: 576
VWidth: 200
Flags: W
HStem: 200 21G<96 108> 479 42<123 401.993> 758 42<123 494.993>
VStem: 81 42<200.007 479 521 758>
LayerCount: 2
Back
Fore
SplineSet
102 800 m 1
 474 800 l 2
 486 800 495 791 495 779 c 0
 495 767 486 758 474 758 c 0
 123 758 l 1
 123 521 l 1
 381 521 l 2
 393 521 402 512 402 500 c 0
 402 488 393 479 381 479 c 0
 123 479 l 1
 123 221 l 2
 123 209 114 200 102 200 c 0
 90 200 81 209 81 221 c 0
 81 497 l 2
 81 498 81 499 81 500 c 0
 81 501 81 503 81 504 c 2
 81 779 l 2
 81 791 90 800 102 800 c 1
EndSplineSet
Validated: 1
EndChar

StartChar: G
Encoding: 71 71 38
Width: 576
VWidth: 200
Flags: W
HStem: 200 42<204 453> 479 42<267.007 453> 758 42<204 372>
VStem: 81 42<323 677> 453 42<242 479>
CounterMasks: 1 e0
LayerCount: 2
Back
Fore
SplineSet
195 800 m 0
 381 800 l 2
 386 800 393 797 396 794 c 2
 489 701 l 2
 492 698 495 691 495 686 c 0
 495 674 486 665 474 665 c 0
 469 665 462 668 459 671 c 2
 372 758 l 1
 204 758 l 1
 123 677 l 1
 123 323 l 1
 204 242 l 1
 453 242 l 1
 453 479 l 1
 288 479 l 2
 276 479 267 488 267 500 c 0
 267 512 276 521 288 521 c 0
 474 521 l 2
 486 521 495 512 495 500 c 2
 495 221 l 2
 495 209 486 200 474 200 c 2
 195 200 l 2
 190 200 183 203 180 206 c 2
 87 299 l 2
 84 302 81 309 81 314 c 2
 81 686 l 2
 81 691 84 698 87 701 c 2
 180 794 l 2
 183 797 190 800 195 800 c 0
EndSplineSet
Validated: 1
EndChar

StartChar: H
Encoding: 72 72 39
Width: 576
VWidth: 200
Flags: W
HStem: 200 21G<96 108 468 480> 479 42<123 453> 780 20G<96.5 108 468 480>
VStem: 81 42<200.007 479 521 799.993> 453 42<200.007 479 521 799.994>
LayerCount: 2
Back
Fore
SplineSet
102 800 m 0
 114 800 123 792 123 780 c 0
 123 521 l 1
 453 521 l 1
 453 780 l 2
 453 792 462 800 474 800 c 0
 486 800 495 792 495 780 c 0
 495 503 l 2
 495 502 495 501 495 500 c 0
 495 499 495 498 495 497 c 2
 495 221 l 2
 495 209 486 200 474 200 c 0
 462 200 453 209 453 221 c 0
 453 479 l 1
 123 479 l 1
 123 221 l 2
 123 209 114 200 102 200 c 0
 90 200 81 209 81 221 c 0
 81 497 l 2
 81 498 81 499 81 500 c 0
 81 501 81 503 81 504 c 2
 81 780 l 2
 81 791 91 800 102 800 c 0
EndSplineSet
Validated: 1
EndChar

StartChar: I
Encoding: 73 73 40
Width: 576
VWidth: 200
Flags: W
HStem: 200 42<174.007 267 309 401.993> 758 42<174.007 267 309 401.993>
VStem: 267 42<242 758>
LayerCount: 2
Back
Fore
SplineSet
288 800 m 0
 289 800 290 800 291 800 c 2
 381 800 l 2
 393 800 402 791 402 779 c 0
 402 767 393 758 381 758 c 0
 309 758 l 1
 309 242 l 1
 381 242 l 2
 393 242 402 233 402 221 c 0
 402 209 393 200 381 200 c 0
 291 200 l 2
 290 200 289 200 288 200 c 0
 287 200 286 200 285 200 c 2
 195 200 l 2
 183 200 174 209 174 221 c 0
 174 233 183 242 195 242 c 0
 267 242 l 1
 267 758 l 1
 195 758 l 2
 183 758 174 767 174 779 c 0
 174 791 183 800 195 800 c 0
 285 800 l 2
 286 800 287 800 288 800 c 0
EndSplineSet
Validated: 1
EndChar

StartChar: J
Encoding: 74 74 41
Width: 576
VWidth: 200
Flags: W
HStem: 200 42<250 326> 780 20G<421.5 434>
VStem: 407 42<323 799.994>
LayerCount: 2
Back
Fore
SplineSet
427 800 m 0
 428 800 l 0
 440 800 449 792 449 780 c 0
 449 314 l 2
 449 309 445 302 442 299 c 2
 349 206 l 2
 346 203 340 200 335 200 c 2
 242 200 l 2
 237 200 230 203 227 206 c 2
 134 299 l 2
 131 302 127 309 127 314 c 0
 127 326 136 335 148 335 c 0
 153 335 160 332 163 329 c 2
 250 242 l 1
 326 242 l 1
 407 323 l 1
 407 780 l 2
 407 791 416 800 427 800 c 0
EndSplineSet
Validated: 1
EndChar

StartChar: K
Encoding: 75 75 42
Width: 576
VWidth: 200
Flags: W
HStem: 200 21G<96 108 471.5 480> 780 20G<96.5 108 471.5 480>
VStem: 81 42<200.007 398 458 799.993>
LayerCount: 2
Back
Fore
SplineSet
102 800 m 0
 114 800 123 792 123 780 c 0
 123 458 l 1
 178 513 l 2
 179 515 181 516 183 517 c 2
 459 794 l 2
 462 797 469 800 474 800 c 0
 486 800 495 792 495 780 c 0
 495 775 492 767 489 764 c 2
 225 500 l 1
 489 236 l 2
 493 233 495 226 495 221 c 0
 495 209 486 200 474 200 c 0
 469 200 462 202 459 206 c 2
 195 470 l 1
 123 398 l 1
 123 221 l 2
 123 209 114 200 102 200 c 0
 90 200 81 209 81 221 c 0
 81 404 l 2
 81 405 81 406 81 407 c 0
 81 408 81 409 81 410 c 2
 81 780 l 2
 81 791 91 800 102 800 c 0
EndSplineSet
Validated: 1
EndChar

StartChar: L
Encoding: 76 76 43
Width: 576
VWidth: 200
Flags: W
HStem: 200 42<123 494.993> 780 20G<95.5 108>
VStem: 81 42<242 799.994>
LayerCount: 2
Back
Fore
SplineSet
101 800 m 0
 102 800 l 0
 114 800 123 792 123 780 c 0
 123 242 l 1
 474 242 l 2
 486 242 495 233 495 221 c 0
 495 209 486 200 474 200 c 0
 102 200 l 2
 90 200 81 209 81 221 c 2
 81 780 l 2
 81 791 90 800 101 800 c 0
EndSplineSet
Validated: 1
EndChar

StartChar: M
Encoding: 77 77 44
Width: 576
VWidth: 200
Flags: W
HStem: 200 21G<96 108 468 480> 780 20G<96.5 104.5 471.5 480>
VStem: 81 42<200.007 728> 267 42<479.007 584> 453 42<200.007 728>
CounterMasks: 1 38
LayerCount: 2
Back
Fore
SplineSet
102 800 m 0
 107 800 114 797 117 794 c 2
 288 623 l 1
 459 794 l 2
 462 797 469 800 474 800 c 0
 486 800 495 792 495 780 c 2
 495 221 l 2
 495 209 486 200 474 200 c 0
 462 200 453 209 453 221 c 0
 453 728 l 1
 309 584 l 1
 309 500 l 2
 309 489 299 479 288 479 c 0
 277 479 267 489 267 500 c 2
 267 584 l 1
 123 728 l 1
 123 221 l 2
 123 209 114 200 102 200 c 0
 90 200 81 209 81 221 c 0
 81 780 l 2
 81 791 91 800 102 800 c 0
EndSplineSet
Validated: 1
EndChar

StartChar: N
Encoding: 78 78 45
Width: 576
VWidth: 200
Flags: W
HStem: 200 21G<96 108 468 480> 780 20G<96.5 108 468 480>
VStem: 81 42<200.007 635 695 799.993> 453 42<200.007 305 365 799.994>
LayerCount: 2
Back
Fore
SplineSet
102 800 m 0
 114 800 123 792 123 780 c 0
 123 695 l 1
 453 365 l 1
 453 780 l 2
 453 792 462 800 474 800 c 0
 486 800 495 792 495 780 c 0
 495 317 l 2
 495 316 495 315 495 314 c 0
 495 313 495 312 495 311 c 2
 495 221 l 2
 495 209 486 200 474 200 c 0
 462 200 453 209 453 221 c 0
 453 305 l 1
 123 635 l 1
 123 221 l 2
 123 209 114 200 102 200 c 0
 90 200 81 209 81 221 c 0
 81 683 l 2
 81 684 81 685 81 686 c 0
 81 687 81 688 81 689 c 2
 81 780 l 2
 81 791 91 800 102 800 c 0
EndSplineSet
Validated: 1
EndChar

StartChar: O
Encoding: 79 79 46
Width: 576
VWidth: 400
Flags: W
HStem: 200 42<204 373> 758 42<204 373>
VStem: 81 42<323 677> 453 42<323 677>
LayerCount: 2
Back
Fore
SplineSet
195 800 m 1
 381 800 l 2
 386 800 393 797 396 794 c 2
 489 701 l 2
 492 698 495 691 495 686 c 2
 495 314 l 2
 495 309 492 302 489 299 c 2
 396 206 l 2
 393 203 386 200 381 200 c 2
 195 200 l 2
 190 200 183 203 180 206 c 2
 89 297 l 2
 87 299 84 302 83 305 c 0
 83 306 l 0
 82 308 81 312 81 314 c 0
 81 315 81 316 81 317 c 2
 81 686 l 2
 81 691 84 698 87 701 c 2
 180 794 l 2
 183 797 190 800 195 800 c 1
204 758 m 1
 123 677 l 1
 123 323 l 1
 204 242 l 1
 373 242 l 1
 453 323 l 1
 453 677 l 1
 373 758 l 1
 204 758 l 1
EndSplineSet
Validated: 1
EndChar

StartChar: P
Encoding: 80 80 47
Width: 576
VWidth: 200
Flags: W
HStem: 200 21G<96 108> 479 42<123 372> 758 42<123 372>
VStem: 81 42<200.007 479 521 758> 453 42<602 677>
LayerCount: 2
Back
Fore
SplineSet
102 800 m 1
 381 800 l 2
 386 800 393 797 396 794 c 2
 489 701 l 2
 492 698 495 691 495 686 c 2
 495 593 l 2
 495 588 492 581 489 578 c 2
 396 485 l 2
 393 482 386 479 381 479 c 2
 123 479 l 1
 123 221 l 2
 123 209 114 200 102 200 c 0
 90 200 81 209 81 221 c 0
 81 497 l 2
 81 498 81 499 81 500 c 0
 81 501 81 503 81 504 c 2
 81 779 l 2
 81 791 90 800 102 800 c 1
123 758 m 1
 123 521 l 1
 372 521 l 1
 453 602 l 1
 453 677 l 1
 372 758 l 1
 123 758 l 1
EndSplineSet
Validated: 1
EndChar

StartChar: Q
Encoding: 81 81 48
Width: 576
VWidth: 200
Flags: W
HStem: 200 42<204 372> 758 42<204 372>
VStem: 81 42<323 677> 453 42<323 677>
LayerCount: 2
Back
Fore
SplineSet
195 800 m 0
 381 800 l 2
 386 800 393 797 396 794 c 2
 489 701 l 2
 492 698 495 691 495 686 c 2
 495 314 l 2
 495 309 492 302 489 299 c 2
 457 268 l 1
 489 236 l 2
 493 233 495 226 495 221 c 0
 495 209 486 200 474 200 c 0
 469 200 462 202 459 206 c 2
 427 238 l 1
 398 208 l 2
 396 206 393 201 390 200 c 0
 389 200 l 0
 387 199 383 200 381 200 c 0
 380 200 379 200 378 200 c 2
 195 200 l 2
 190 200 183 203 180 206 c 2
 87 299 l 2
 84 302 81 309 81 314 c 2
 81 686 l 2
 81 691 84 698 87 701 c 2
 180 794 l 2
 183 797 190 800 195 800 c 0
204 758 m 1
 123 677 l 1
 123 323 l 1
 204 242 l 1
 372 242 l 1
 398 268 l 1
 273 392 l 2
 270 395 267 402 267 407 c 0
 267 419 276 428 288 428 c 0
 293 428 300 425 303 422 c 2
 427 297 l 1
 453 323 l 1
 453 677 l 1
 372 758 l 1
 204 758 l 1
EndSplineSet
Validated: 1
EndChar

StartChar: R
Encoding: 82 82 49
Width: 576
VWidth: 200
Flags: W
HStem: 200 21G<96 108 471.5 480> 479 42<123 186 246 372> 758 42<123 372>
VStem: 81 42<200.007 479 521 758> 453 42<602 677>
LayerCount: 2
Back
Fore
SplineSet
102 800 m 2
 381 800 l 2
 386 800 393 797 396 794 c 2
 489 701 l 2
 492 698 495 691 495 686 c 2
 495 593 l 2
 495 588 492 581 489 578 c 2
 396 485 l 2
 393 482 386 479 381 479 c 2
 246 479 l 1
 489 236 l 2
 493 233 495 226 495 221 c 0
 495 209 486 200 474 200 c 0
 469 200 462 202 459 206 c 2
 186 479 l 1
 123 479 l 1
 123 221 l 2
 123 209 114 200 102 200 c 0
 90 200 81 209 81 221 c 0
 81 497 l 2
 81 498 81 499 81 500 c 0
 81 501 81 503 81 504 c 2
 81 779 l 2
 81 791 90 800 102 800 c 2
123 758 m 1
 123 521 l 1
 192 521 l 2
 193 521 194 521 195 521 c 0
 196 521 197 521 198 521 c 2
 372 521 l 1
 453 602 l 1
 453 677 l 1
 372 758 l 1
 123 758 l 1
EndSplineSet
Validated: 1
EndChar

StartChar: S
Encoding: 83 83 50
Width: 576
VWidth: 200
Flags: W
HStem: 200 42<204 372> 479 42<204 372> 758 42<204 372>
VStem: 81 42<602 677> 453 42<323 398>
CounterMasks: 1 e0
LayerCount: 2
Back
Fore
SplineSet
195 800 m 0
 381 800 l 2
 386 800 393 797 396 794 c 2
 489 701 l 2
 492 698 495 691 495 686 c 0
 495 674 486 665 474 665 c 0
 469 665 462 668 459 671 c 2
 372 758 l 1
 204 758 l 1
 123 677 l 1
 123 602 l 1
 204 521 l 1
 381 521 l 2
 386 521 393 518 396 515 c 2
 489 422 l 2
 492 419 495 412 495 407 c 2
 495 314 l 2
 495 309 492 302 489 299 c 2
 396 206 l 2
 393 203 386 200 381 200 c 2
 195 200 l 2
 190 200 183 203 180 206 c 2
 87 299 l 2
 84 302 81 309 81 314 c 0
 81 326 90 335 102 335 c 0
 107 335 114 332 117 329 c 2
 204 242 l 1
 372 242 l 1
 453 323 l 1
 453 398 l 1
 372 479 l 1
 195 479 l 2
 190 479 183 482 180 485 c 2
 87 578 l 2
 84 581 81 588 81 593 c 2
 81 686 l 2
 81 691 84 698 87 701 c 2
 180 794 l 2
 183 797 190 800 195 800 c 0
EndSplineSet
Validated: 1
EndChar

StartChar: T
Encoding: 84 84 51
Width: 576
VWidth: 200
Flags: W
HStem: 200 21G<282 294> 758 42<81.0066 267 309 494.993>
VStem: 267 42<200.007 758>
LayerCount: 2
Back
Fore
SplineSet
288 800 m 0
 289 800 290 800 291 800 c 2
 474 800 l 2
 486 800 495 791 495 779 c 0
 495 767 486 758 474 758 c 0
 309 758 l 1
 309 221 l 2
 309 209 300 200 288 200 c 0
 276 200 267 209 267 221 c 0
 267 758 l 1
 102 758 l 2
 90 758 81 767 81 779 c 0
 81 791 90 800 102 800 c 0
 285 800 l 2
 286 800 287 800 288 800 c 0
EndSplineSet
Validated: 1
EndChar

StartChar: U
Encoding: 85 85 52
Width: 576
VWidth: 200
Flags: W
HStem: 200 42<204 372> 780 20G<96.5 108 468 480>
VStem: 81 42<323 799.993> 453 42<323 799.994>
LayerCount: 2
Back
Fore
SplineSet
102 800 m 0
 114 800 123 792 123 780 c 0
 123 323 l 1
 204 242 l 1
 372 242 l 1
 453 323 l 1
 453 780 l 2
 453 792 462 800 474 800 c 0
 486 800 495 792 495 780 c 0
 495 314 l 2
 495 309 492 302 489 299 c 2
 396 206 l 2
 393 203 386 200 381 200 c 2
 195 200 l 2
 190 200 183 203 180 206 c 2
 87 299 l 2
 84 302 81 309 81 314 c 2
 81 780 l 2
 81 791 91 800 102 800 c 0
EndSplineSet
Validated: 1
EndChar

StartChar: V
Encoding: 86 86 53
Width: 576
VWidth: 200
Flags: W
HStem: 200 21G<285.5 290.5> 780 20G<96.5 108 468 480>
VStem: 81 42<416 799.993> 453 42<416 799.994>
LayerCount: 2
Back
Fore
SplineSet
102 800 m 0
 114 800 123 792 123 780 c 0
 123 416 l 1
 288 251 l 1
 453 416 l 1
 453 780 l 2
 453 792 462 800 474 800 c 0
 486 800 495 792 495 780 c 0
 495 407 l 2
 495 402 492 395 489 392 c 2
 303 206 l 2
 300 203 293 200 288 200 c 0
 283 200 276 203 273 206 c 2
 87 392 l 2
 84 395 81 402 81 407 c 2
 81 780 l 2
 81 791 91 800 102 800 c 0
EndSplineSet
Validated: 1
EndChar

StartChar: W
Encoding: 87 87 54
Width: 576
VWidth: 200
Flags: W
HStem: 200 21G<96 104.5 471.5 480> 780 20G<96.5 108 468 480>
VStem: 81 42<272 799.993> 267 42<416 520.993> 453 42<272 799.994>
CounterMasks: 1 38
LayerCount: 2
Back
Fore
SplineSet
102 800 m 0
 114 800 123 792 123 780 c 0
 123 272 l 1
 267 416 l 1
 267 500 l 2
 267 512 276 521 288 521 c 0
 300 521 309 512 309 500 c 0
 309 416 l 1
 453 272 l 1
 453 780 l 2
 453 792 462 800 474 800 c 0
 486 800 495 792 495 780 c 0
 495 221 l 2
 495 209 486 200 474 200 c 0
 469 200 462 203 459 206 c 2
 288 377 l 1
 117 206 l 2
 114 203 107 200 102 200 c 0
 90 200 81 209 81 221 c 2
 81 780 l 2
 81 791 91 800 102 800 c 0
EndSplineSet
Validated: 1
EndChar

StartChar: X
Encoding: 88 88 55
Width: 576
VWidth: 200
Flags: W
HStem: 200 21G<96 108 468 480> 780 20G<96.5 108 468 480>
VStem: 81 42<200.007 305 695 799.993> 453 42<200.007 305 695 799.994>
LayerCount: 2
Back
Fore
SplineSet
102 800 m 0
 114 800 123 792 123 780 c 0
 123 695 l 1
 288 530 l 1
 453 695 l 1
 453 780 l 2
 453 792 462 800 474 800 c 0
 486 800 495 792 495 780 c 0
 495 686 l 2
 495 681 492 674 489 671 c 2
 318 500 l 1
 489 329 l 2
 492 326 495 319 495 314 c 2
 495 221 l 2
 495 209 486 200 474 200 c 0
 462 200 453 209 453 221 c 0
 453 305 l 1
 288 470 l 1
 123 305 l 1
 123 221 l 2
 123 209 114 200 102 200 c 0
 90 200 81 209 81 221 c 0
 81 314 l 2
 81 319 84 326 87 329 c 2
 258 500 l 1
 87 671 l 2
 84 674 81 681 81 686 c 2
 81 780 l 2
 81 791 91 800 102 800 c 0
EndSplineSet
Validated: 1
EndChar

StartChar: Y
Encoding: 89 89 56
Width: 576
VWidth: 200
Flags: W
HStem: 200 21G<282 294> 780 20G<96.5 108 468 480>
VStem: 81 42<695 799.993> 267 42<200.007 491> 453 42<695 799.994>
CounterMasks: 1 38
LayerCount: 2
Back
Fore
SplineSet
102 800 m 0
 114 800 123 792 123 780 c 0
 123 695 l 1
 288 530 l 1
 453 695 l 1
 453 780 l 2
 453 792 462 800 474 800 c 0
 486 800 495 792 495 780 c 0
 495 686 l 2
 495 681 492 674 489 671 c 2
 309 491 l 1
 309 221 l 2
 309 209 300 200 288 200 c 0
 276 200 267 209 267 221 c 0
 267 491 l 1
 87 671 l 2
 84 674 81 681 81 686 c 2
 81 780 l 2
 81 791 91 800 102 800 c 0
EndSplineSet
Validated: 1
EndChar

StartChar: Z
Encoding: 90 90 57
Width: 576
VWidth: 200
Flags: W
HStem: 200 42<123 494.993> 758 42<81.0066 453>
VStem: 81 42<242 305> 453 42<695 758>
LayerCount: 2
Back
Fore
SplineSet
102 800 m 0
 474 800 l 2
 486 800 495 791 495 779 c 2
 495 686 l 2
 495 681 492 674 489 671 c 2
 123 305 l 1
 123 242 l 1
 474 242 l 2
 486 242 495 233 495 221 c 0
 495 209 486 200 474 200 c 0
 102 200 l 2
 90 200 81 209 81 221 c 2
 81 314 l 2
 81 319 84 326 87 329 c 2
 453 695 l 1
 453 758 l 1
 102 758 l 2
 90 758 81 767 81 779 c 0
 81 791 90 800 102 800 c 0
EndSplineSet
Validated: 1
EndChar

StartChar: bracketleft
Encoding: 91 91 58
Width: 576
VWidth: 200
Flags: W
HStem: 200 42<216 401.993> 758 42<216 401.993>
VStem: 174 42<242 758>
LayerCount: 2
Back
Fore
SplineSet
195 800 m 0
 381 800 l 2
 393 800 402 791 402 779 c 0
 402 767 393 758 381 758 c 0
 216 758 l 1
 216 242 l 1
 381 242 l 2
 393 242 402 233 402 221 c 0
 402 209 393 200 381 200 c 0
 195 200 l 2
 183 200 174 209 174 221 c 2
 174 779 l 2
 174 791 183 800 195 800 c 0
EndSplineSet
Validated: 1
EndChar

StartChar: bracketright
Encoding: 93 93 59
Width: 576
VWidth: 200
Flags: W
HStem: 200 42<174.007 360> 758 42<174.007 360>
VStem: 360 42<242 758>
LayerCount: 2
Back
Fore
SplineSet
195 800 m 0
 381 800 l 2
 393 800 402 791 402 779 c 2
 402 221 l 2
 402 209 393 200 381 200 c 2
 195 200 l 2
 183 200 174 209 174 221 c 0
 174 233 183 242 195 242 c 0
 360 242 l 1
 360 758 l 1
 195 758 l 2
 183 758 174 767 174 779 c 0
 174 791 183 800 195 800 c 0
EndSplineSet
Validated: 1
EndChar

StartChar: underscore
Encoding: 95 95 60
Width: 576
VWidth: 200
Flags: W
HStem: 107 42<-58.9934 634.993>
LayerCount: 2
Back
Fore
SplineSet
-38 149 m 0
 614 149 l 2
 626 149 635 140 635 128 c 0
 635 116 626 107 614 107 c 0
 -38 107 l 2
 -50 107 -59 116 -59 128 c 0
 -59 140 -50 149 -38 149 c 0
EndSplineSet
Validated: 1
EndChar

StartChar: a
Encoding: 97 97 61
Width: 576
VWidth: 200
Flags: W
HStem: 200 42<204 279> 479 42<204 279> 572 42<81.0066 279>
VStem: 81 42<323 398> 360 42<323 398 458 491>
LayerCount: 2
Back
Fore
SplineSet
102 614 m 0
 288 614 l 2
 293 614 300 611 303 608 c 2
 396 515 l 2
 399 512 402 505 402 500 c 2
 402 410 l 2
 402 409 402 408 402 407 c 0
 402 406 402 405 402 404 c 2
 402 323 l 1
 489 236 l 2
 493 233 495 226 495 221 c 0
 495 209 486 200 474 200 c 0
 469 200 462 202 459 206 c 2
 381 284 l 1
 303 206 l 2
 300 203 293 200 288 200 c 2
 195 200 l 2
 190 200 183 203 180 206 c 2
 87 299 l 2
 84 302 81 309 81 314 c 2
 81 407 l 2
 81 412 84 419 87 422 c 2
 180 515 l 2
 183 518 190 521 195 521 c 2
 288 521 l 2
 293 521 300 518 303 515 c 2
 360 458 l 1
 360 491 l 1
 279 572 l 1
 102 572 l 2
 90 572 81 581 81 593 c 0
 81 605 90 614 102 614 c 0
204 479 m 1
 123 398 l 1
 123 323 l 1
 204 242 l 1
 279 242 l 1
 360 323 l 1
 360 398 l 1
 279 479 l 1
 204 479 l 1
EndSplineSet
Validated: 1
EndChar

StartChar: b
Encoding: 98 98 62
Width: 576
VWidth: 200
Flags: W
HStem: 200 42<170 326> 572 42<170 326> 780 20G<142.5 154>
VStem: 128 42<242 572 614 799.974> 406 42<323 491>
LayerCount: 2
Back
Fore
SplineSet
170 572 m 1
 170 242 l 1
 326 242 l 1
 406 323 l 1
 406 491 l 1
 326 572 l 1
 170 572 l 1
148 800 m 0
 160 800 170 792 170 780 c 2
 170 614 l 1
 334 614 l 2
 339 614 345 611 348 608 c 2
 442 515 l 2
 445 512 448 505 448 500 c 2
 448 314 l 2
 448 309 445 302 442 299 c 2
 348 206 l 2
 345 203 339 200 334 200 c 2
 148 200 l 2
 136 200 128 209 128 221 c 2
 128 590 l 2
 128 591 128 592 128 593 c 0
 128 594 128 596 128 597 c 2
 128 780 l 2
 128 791 137 800 148 800 c 0
EndSplineSet
Validated: 1
EndChar

StartChar: c
Encoding: 99 99 63
Width: 576
VWidth: 200
Flags: W
HStem: 200 42<250 326> 572 42<250 326>
VStem: 127 42<323 491>
LayerCount: 2
Back
Fore
SplineSet
241 614 m 0
 334 614 l 2
 339 614 346 611 349 608 c 2
 442 515 l 2
 445 512 449 505 449 500 c 0
 449 488 440 479 428 479 c 0
 423 479 416 482 413 485 c 2
 326 572 l 1
 250 572 l 1
 169 491 l 1
 169 323 l 1
 250 242 l 1
 326 242 l 1
 413 329 l 2
 416 332 423 335 428 335 c 0
 440 335 449 326 449 314 c 0
 449 309 445 302 442 299 c 2
 349 206 l 2
 346 203 339 200 334 200 c 2
 241 200 l 2
 236 200 230 203 227 206 c 2
 134 299 l 2
 131 302 127 309 127 314 c 2
 127 500 l 2
 127 505 131 512 134 515 c 2
 227 608 l 2
 230 611 236 614 241 614 c 0
EndSplineSet
Validated: 1
EndChar

StartChar: d
Encoding: 100 100 64
Width: 576
VWidth: 200
Flags: W
HStem: 200 42<250 406> 572 42<250 406> 780 20G<421.5 433>
VStem: 127 42<323 491> 406 42<242 572 614 799.993>
LayerCount: 2
Back
Fore
SplineSet
427 800 m 0
 439 800 448 792 448 780 c 0
 448 596 l 2
 448 595 449 594 449 593 c 0
 449 592 448 591 448 590 c 2
 448 221 l 2
 448 209 439 200 427 200 c 2
 241 200 l 2
 236 200 230 203 227 206 c 2
 133 299 l 2
 130 302 127 309 127 314 c 2
 127 500 l 2
 127 505 130 512 133 515 c 2
 227 608 l 2
 230 611 236 614 241 614 c 2
 406 614 l 1
 406 780 l 2
 406 791 416 800 427 800 c 0
250 572 m 1
 169 491 l 1
 169 323 l 1
 250 242 l 1
 406 242 l 1
 406 572 l 1
 250 572 l 1
EndSplineSet
Validated: 1
EndChar

StartChar: e
Encoding: 101 101 65
Width: 576
VWidth: 200
Flags: W
HStem: 200 42<250 448.993> 386 42<169 407> 572 42<250 326>
VStem: 127 42<323 386 428 491> 407 42<428 491>
CounterMasks: 1 e0
LayerCount: 2
Back
Fore
SplineSet
241 614 m 1
 334 614 l 2
 339 614 346 611 349 608 c 2
 442 515 l 2
 445 512 449 505 449 500 c 2
 449 407 l 2
 449 395 440 386 428 386 c 2
 169 386 l 1
 169 323 l 1
 250 242 l 1
 428 242 l 2
 440 242 449 233 449 221 c 0
 449 209 440 200 428 200 c 0
 241 200 l 2
 236 200 230 203 227 206 c 2
 134 299 l 2
 131 302 127 309 127 314 c 2
 127 404 l 2
 127 405 127 406 127 407 c 0
 127 408 127 409 127 410 c 2
 127 500 l 2
 127 505 131 512 134 515 c 2
 227 608 l 2
 230 611 236 614 241 614 c 1
250 572 m 1
 169 491 l 1
 169 428 l 1
 407 428 l 1
 407 491 l 1
 326 572 l 1
 250 572 l 1
EndSplineSet
Validated: 1
EndChar

StartChar: f
Encoding: 102 102 66
Width: 576
VWidth: 200
Flags: W
HStem: 200 21G<282 294> 479 42<174.007 267 309 401.993> 758 42<309 401.993>
VStem: 267 42<200.007 479 521 758>
LayerCount: 2
Back
Fore
SplineSet
288 800 m 0
 381 800 l 2
 393 800 402 791 402 779 c 0
 402 767 393 758 381 758 c 0
 309 758 l 1
 309 521 l 1
 381 521 l 2
 393 521 402 512 402 500 c 0
 402 488 393 479 381 479 c 0
 309 479 l 1
 309 221 l 2
 309 209 300 200 288 200 c 0
 276 200 267 209 267 221 c 0
 267 479 l 1
 195 479 l 2
 183 479 174 488 174 500 c 0
 174 512 183 521 195 521 c 0
 267 521 l 1
 267 779 l 2
 267 791 276 800 288 800 c 0
EndSplineSet
Validated: 1
EndChar

StartChar: g
Encoding: 103 103 67
Width: 576
VWidth: 200
Flags: W
HStem: 107 42<250 326> 293 42<250 326> 572 42<250 326>
VStem: 127 42<416 491> 407 42<230 356 416 491>
LayerCount: 2
Back
Fore
SplineSet
242 614 m 2
 335 614 l 2
 340 614 346 611 349 608 c 2
 442 515 l 2
 445 512 449 505 449 500 c 2
 449 410 l 2
 449 409 449 408 449 407 c 0
 449 406 449 405 449 404 c 2
 449 221 l 2
 449 216 445 209 442 206 c 2
 349 113 l 2
 346 110 340 107 335 107 c 2
 242 107 l 2
 237 107 230 110 227 113 c 2
 134 206 l 2
 130 209 127 216 127 221 c 0
 127 233 136 242 148 242 c 0
 153 242 160 240 163 236 c 2
 250 149 l 1
 326 149 l 1
 407 230 l 1
 407 356 l 1
 349 299 l 2
 346 296 340 293 335 293 c 2
 242 293 l 2
 237 293 230 296 227 299 c 2
 134 392 l 2
 131 395 127 402 127 407 c 2
 127 500 l 2
 127 505 131 512 134 515 c 2
 227 608 l 2
 230 611 237 614 242 614 c 2
250 572 m 1
 169 491 l 1
 169 416 l 1
 250 335 l 1
 326 335 l 1
 407 416 l 1
 407 491 l 1
 326 572 l 1
 250 572 l 1
EndSplineSet
Validated: 1
EndChar

StartChar: h
Encoding: 104 104 68
Width: 576
VWidth: 200
Flags: W
HStem: 200 21G<142 154 422 434> 572 42<170 326> 780 20G<142.5 154>
VStem: 128 42<200.026 572 614 799.974> 406 42<200.026 491>
LayerCount: 2
Back
Fore
SplineSet
148 800 m 0
 160 800 170 792 170 780 c 2
 170 614 l 1
 334 614 l 2
 339 614 345 611 348 608 c 2
 442 515 l 2
 445 512 448 505 448 500 c 2
 448 221 l 2
 448 209 440 200 428 200 c 0
 416 200 406 209 406 221 c 2
 406 491 l 1
 326 572 l 1
 170 572 l 1
 170 221 l 2
 170 209 160 200 148 200 c 0
 136 200 128 209 128 221 c 2
 128 590 l 2
 128 591 128 592 128 593 c 0
 128 594 128 596 128 597 c 2
 128 780 l 2
 128 791 137 800 148 800 c 0
EndSplineSet
Validated: 1
EndChar

StartChar: i
Encoding: 105 105 69
Width: 576
VWidth: 200
Flags: W
HStem: 200 21G<282 294>
VStem: 267 42<200.007 520.993 572.007 706.993>
LayerCount: 2
Back
Fore
SplineSet
288 707 m 0
 300 707 309 698 309 686 c 0
 309 593 l 2
 309 581 300 572 288 572 c 0
 276 572 267 581 267 593 c 0
 267 686 l 2
 267 697 277 707 288 707 c 0
288 521 m 0
 300 521 309 512 309 500 c 0
 309 221 l 2
 309 209 300 200 288 200 c 0
 276 200 267 209 267 221 c 0
 267 500 l 2
 267 511 277 521 288 521 c 0
EndSplineSet
Validated: 1
EndChar

StartChar: j
Encoding: 106 106 70
Width: 576
VWidth: 200
Flags: W
HStem: 107 42<250 326>
VStem: 407 42<230 520.993 572.007 706.993>
LayerCount: 2
Back
Fore
SplineSet
427 707 m 0
 428 707 l 0
 440 707 449 698 449 686 c 0
 449 593 l 2
 449 581 440 572 428 572 c 0
 416 572 407 581 407 593 c 0
 407 686 l 2
 407 697 416 707 427 707 c 0
427 521 m 0
 428 521 l 0
 440 521 449 512 449 500 c 0
 449 221 l 2
 449 216 445 209 442 206 c 2
 349 113 l 2
 346 110 340 107 335 107 c 2
 242 107 l 2
 237 107 230 110 227 113 c 2
 134 206 l 2
 130 209 127 216 127 221 c 0
 127 233 136 242 148 242 c 0
 153 242 160 240 163 236 c 2
 250 149 l 1
 326 149 l 1
 407 230 l 1
 407 500 l 2
 407 511 416 521 427 521 c 0
EndSplineSet
Validated: 1
EndChar

StartChar: k
Encoding: 107 107 71
Width: 576
VWidth: 200
Flags: W
HStem: 200 21G<142 154 425.5 434> 594 20G<425.5 434> 780 20G<142.5 154>
VStem: 127 42<200.007 305 365 799.993>
LayerCount: 2
Back
Fore
SplineSet
148 800 m 0
 160 800 169 792 169 780 c 0
 169 365 l 1
 224 420 l 2
 225 422 227 423 229 424 c 2
 413 608 l 2
 416 611 423 614 428 614 c 0
 440 614 449 606 449 594 c 0
 449 589 445 581 442 578 c 2
 271 407 l 1
 442 236 l 2
 446 233 449 226 449 221 c 0
 449 209 440 200 428 200 c 0
 423 200 416 202 413 206 c 2
 241 377 l 1
 169 305 l 1
 169 221 l 2
 169 209 160 200 148 200 c 0
 136 200 127 209 127 221 c 0
 127 311 l 2
 127 312 127 313 127 314 c 0
 127 315 127 316 127 317 c 2
 127 780 l 2
 127 791 137 800 148 800 c 0
EndSplineSet
Validated: 1
EndChar

StartChar: l
Encoding: 108 108 72
Width: 576
VWidth: 200
Flags: W
HStem: 200 42<262 355.993> 780 20G<235.5 247>
VStem: 220 42<242 799.993>
LayerCount: 2
Back
Fore
SplineSet
241 800 m 0
 253 800 262 792 262 780 c 0
 262 242 l 1
 334 242 l 2
 335 242 l 0
 347 242 356 233 356 221 c 0
 356 209 347 200 335 200 c 0
 334 200 l 2
 241 200 l 2
 229 200 220 209 220 221 c 2
 220 780 l 2
 220 791 230 800 241 800 c 0
EndSplineSet
Validated: 1
EndChar

StartChar: m
Encoding: 109 109 73
Width: 576
VWidth: 200
Flags: W
HStem: 200 21G<96 108 282 294 468 480> 594 20G<96.5 108 192.5 197.5 378.5 383.5>
VStem: 81 42<200.007 491 551 613.993> 267 42<200.007 491> 453 42<200.007 491>
CounterMasks: 1 38
LayerCount: 2
Back
Fore
SplineSet
102 614 m 0
 114 614 123 606 123 594 c 0
 123 551 l 1
 180 608 l 2
 183 611 190 614 195 614 c 0
 200 614 207 611 210 608 c 2
 288 530 l 1
 366 608 l 2
 369 611 376 614 381 614 c 0
 386 614 393 611 396 608 c 2
 489 515 l 2
 492 512 495 505 495 500 c 2
 495 221 l 2
 495 209 486 200 474 200 c 0
 462 200 453 209 453 221 c 0
 453 491 l 1
 381 563 l 1
 309 491 l 1
 309 221 l 2
 309 209 300 200 288 200 c 0
 276 200 267 209 267 221 c 0
 267 491 l 1
 195 563 l 1
 123 491 l 1
 123 221 l 2
 123 209 114 200 102 200 c 0
 90 200 81 209 81 221 c 0
 81 497 l 2
 81 498 81 499 81 500 c 0
 81 501 81 502 81 503 c 2
 81 594 l 2
 81 605 91 614 102 614 c 0
EndSplineSet
Validated: 1
EndChar

StartChar: n
Encoding: 110 110 74
Width: 576
VWidth: 200
Flags: W
HStem: 200 21G<142 154 422 434> 572 42<250 326>
VStem: 127 42<200.007 491 551 613.993> 407 42<200.007 491>
LayerCount: 2
Back
Fore
SplineSet
241 614 m 0
 335 614 l 2
 340 614 346 611 349 608 c 2
 442 515 l 2
 445 512 449 505 449 500 c 2
 449 221 l 2
 449 209 440 200 428 200 c 0
 416 200 407 209 407 221 c 0
 407 491 l 1
 326 572 l 1
 250 572 l 1
 169 491 l 1
 169 221 l 2
 169 209 160 200 148 200 c 0
 136 200 127 209 127 221 c 0
 127 500 l 1
 127 593 l 2
 127 604 137 614 148 614 c 0
 159 614 169 604 169 593 c 2
 169 551 l 1
 227 608 l 2
 230 611 236 614 241 614 c 0
EndSplineSet
Validated: 1
EndChar

StartChar: o
Encoding: 111 111 75
Width: 576
VWidth: 200
Flags: W
HStem: 200 42<250 326> 572 42<250 326>
VStem: 128 42<323 491> 407 42<323 491>
LayerCount: 2
Back
Fore
SplineSet
242 614 m 1
 335 614 l 2
 340 614 346 611 349 608 c 2
 442 515 l 2
 445 512 449 505 449 500 c 2
 449 314 l 2
 449 309 445 302 442 299 c 2
 349 206 l 2
 346 203 340 200 335 200 c 2
 242 200 l 2
 237 200 230 203 227 206 c 2
 136 297 l 2
 134 299 129 302 128 305 c 0
 128 306 l 0
 127 308 128 312 128 314 c 0
 128 315 128 316 128 317 c 2
 128 500 l 2
 128 505 131 512 134 515 c 2
 227 608 l 2
 230 611 237 614 242 614 c 1
250 572 m 1
 170 491 l 1
 170 323 l 1
 250 242 l 1
 326 242 l 1
 407 323 l 1
 407 491 l 1
 326 572 l 1
 250 572 l 1
EndSplineSet
Validated: 1
EndChar

StartChar: p
Encoding: 112 112 76
Width: 576
VWidth: 200
Flags: W
HStem: 107 21G<142 154> 293 42<170 326> 572 42<170 326>
VStem: 128 42<107.026 293 335 572> 406 42<416 491>
LayerCount: 2
Back
Fore
SplineSet
148 614 m 2
 334 614 l 2
 339 614 345 611 348 608 c 2
 442 515 l 2
 445 512 448 505 448 500 c 2
 448 407 l 2
 448 402 445 395 442 392 c 2
 348 299 l 2
 345 296 339 293 334 293 c 2
 170 293 l 1
 170 128 l 2
 170 116 160 107 148 107 c 0
 136 107 128 116 128 128 c 0
 128 311 l 2
 128 312 128 313 128 314 c 0
 128 315 128 316 128 317 c 2
 128 593 l 2
 128 605 136 614 148 614 c 2
170 572 m 1
 170 335 l 1
 326 335 l 1
 406 416 l 1
 406 491 l 1
 326 572 l 1
 170 572 l 1
EndSplineSet
Validated: 1
EndChar

StartChar: q
Encoding: 113 113 77
Width: 576
VWidth: 200
Flags: W
HStem: 107 42<402 494.993> 293 42<204 360> 572 42<204 360>
VStem: 81 42<416 491> 360 42<149 293 335 572>
LayerCount: 2
Back
Fore
SplineSet
195 614 m 2
 381 614 l 2
 393 614 402 605 402 593 c 2
 402 317 l 2
 402 316 402 315 402 314 c 0
 402 313 402 312 402 311 c 2
 402 149 l 1
 474 149 l 2
 486 149 495 140 495 128 c 0
 495 116 486 107 474 107 c 0
 381 107 l 2
 369 107 360 116 360 128 c 2
 360 293 l 1
 195 293 l 2
 190 293 183 296 180 299 c 2
 87 392 l 2
 84 395 81 402 81 407 c 2
 81 500 l 2
 81 505 84 512 87 515 c 2
 180 608 l 2
 183 611 190 614 195 614 c 2
204 572 m 1
 123 491 l 1
 123 416 l 1
 204 335 l 1
 360 335 l 1
 360 572 l 1
 204 572 l 1
EndSplineSet
Validated: 1
EndChar

StartChar: r
Encoding: 114 114 78
Width: 576
VWidth: 200
Flags: W
HStem: 200 21G<235 247> 572 42<343 448.993>
VStem: 220 42<200.007 491>
LayerCount: 2
Back
Fore
SplineSet
148 614 m 0
 153 614 160 612 163 608 c 2
 241 530 l 1
 320 608 l 2
 323 611 329 614 334 614 c 2
 427 614 l 2
 428 614 l 0
 440 614 449 605 449 593 c 0
 449 581 440 572 428 572 c 0
 427 572 l 2
 343 572 l 1
 262 491 l 1
 262 221 l 2
 262 209 253 200 241 200 c 0
 229 200 220 209 220 221 c 0
 220 491 l 1
 134 578 l 2
 130 581 127 588 127 593 c 0
 127 605 136 614 148 614 c 0
EndSplineSet
Validated: 1
EndChar

StartChar: s
Encoding: 115 115 79
Width: 576
VWidth: 200
Flags: W
HStem: 200 42<250 326> 386 42<250 326> 572 42<250 326>
VStem: 127 322<309 319 495 505>
CounterMasks: 1 e0
LayerCount: 2
Back
Fore
SplineSet
241 614 m 0
 335 614 l 2
 340 614 346 611 349 608 c 2
 442 515 l 2
 445 512 448 505 448 500 c 0
 448 488 440 479 428 479 c 0
 423 479 416 482 413 485 c 2
 326 572 l 1
 250 572 l 1
 178 500 l 1
 250 428 l 1
 335 428 l 2
 340 428 346 425 349 422 c 2
 442 329 l 2
 445 326 449 319 449 314 c 0
 449 309 445 302 442 299 c 2
 349 206 l 2
 346 203 340 200 335 200 c 2
 241 200 l 2
 236 200 230 203 227 206 c 2
 134 299 l 2
 131 302 127 309 127 314 c 0
 127 326 136 335 148 335 c 0
 153 335 160 332 163 329 c 2
 250 242 l 1
 326 242 l 1
 398 314 l 1
 326 386 l 1
 241 386 l 2
 236 386 230 389 227 392 c 2
 134 485 l 2
 131 488 127 495 127 500 c 0
 127 505 131 512 134 515 c 2
 227 608 l 2
 230 611 236 614 241 614 c 0
EndSplineSet
Validated: 1
EndChar

StartChar: t
Encoding: 116 116 80
Width: 576
VWidth: 200
Flags: W
HStem: 200 42<309 401.993> 572 42<174.007 267 309 401.993> 780 20G<282.5 294>
VStem: 267 42<242 572 614 799.993>
LayerCount: 2
Back
Fore
SplineSet
288 800 m 0
 300 800 309 792 309 780 c 0
 309 614 l 1
 381 614 l 2
 393 614 402 605 402 593 c 0
 402 581 393 572 381 572 c 0
 309 572 l 1
 309 242 l 1
 381 242 l 2
 393 242 402 233 402 221 c 0
 402 209 393 200 381 200 c 0
 288 200 l 2
 276 200 267 209 267 221 c 2
 267 572 l 1
 195 572 l 2
 183 572 174 581 174 593 c 0
 174 605 183 614 195 614 c 0
 267 614 l 1
 267 780 l 2
 267 791 277 800 288 800 c 0
EndSplineSet
Validated: 1
EndChar

StartChar: u
Encoding: 117 117 81
Width: 576
VWidth: 200
Flags: W
HStem: 200 42<169 407> 594 20G<142.5 154 422 434>
VStem: 127 42<242 613.993> 407 42<242 613.994>
LayerCount: 2
Back
Fore
SplineSet
148 614 m 0
 160 614 169 606 169 594 c 0
 169 242 l 1
 407 242 l 1
 407 594 l 2
 407 606 416 614 428 614 c 0
 440 614 449 606 449 594 c 0
 449 221 l 2
 449 209 440 200 428 200 c 2
 148 200 l 2
 136 200 127 209 127 221 c 2
 127 594 l 2
 127 605 137 614 148 614 c 0
EndSplineSet
Validated: 1
EndChar

StartChar: v
Encoding: 118 118 82
Width: 576
VWidth: 200
Flags: W
HStem: 200 21G<285.5 290.5> 594 20G<96.5 108 468 480>
VStem: 81 42<416 613.993> 453 42<416 613.994>
LayerCount: 2
Back
Fore
SplineSet
102 614 m 0
 114 614 123 606 123 594 c 0
 123 416 l 1
 288 251 l 1
 453 416 l 1
 453 594 l 2
 453 606 462 614 474 614 c 0
 486 614 495 606 495 594 c 0
 495 407 l 2
 495 402 492 395 489 392 c 2
 303 206 l 2
 300 203 293 200 288 200 c 0
 283 200 276 203 273 206 c 2
 87 392 l 2
 84 395 81 402 81 407 c 2
 81 594 l 2
 81 605 91 614 102 614 c 0
EndSplineSet
Validated: 1
EndChar

StartChar: w
Encoding: 119 119 83
Width: 576
VWidth: 200
Flags: W
HStem: 200 21G<192.5 197.5 378.5 383.5> 594 20G<96.5 108 468 480>
VStem: 81 42<323 613.993> 267 42<323 427.993> 453 42<323 613.994>
CounterMasks: 1 38
LayerCount: 2
Back
Fore
SplineSet
102 614 m 0
 114 614 123 606 123 594 c 0
 123 323 l 1
 195 251 l 1
 267 323 l 1
 267 407 l 2
 267 418 277 428 288 428 c 0
 299 428 309 418 309 407 c 2
 309 323 l 1
 381 251 l 1
 453 323 l 1
 453 594 l 2
 453 606 462 614 474 614 c 0
 486 614 495 606 495 594 c 0
 495 314 l 2
 495 309 492 302 489 299 c 2
 396 206 l 2
 393 203 386 200 381 200 c 0
 376 200 369 203 366 206 c 2
 288 284 l 1
 210 206 l 2
 207 203 200 200 195 200 c 0
 190 200 183 203 180 206 c 2
 87 299 l 2
 84 302 81 309 81 314 c 2
 81 594 l 2
 81 605 91 614 102 614 c 0
EndSplineSet
Validated: 1
EndChar

StartChar: x
Encoding: 120 120 84
Width: 576
VWidth: 200
Flags: W
HStem: 200 21G<96 104.5 471.5 480> 594 20G<96 104.5 471.5 480>
LayerCount: 2
Back
Fore
SplineSet
102 614 m 0
 107 614 114 612 117 608 c 2
 288 437 l 1
 459 608 l 2
 462 611 469 614 474 614 c 0
 486 614 495 606 495 594 c 0
 495 589 492 581 489 578 c 2
 318 407 l 1
 489 236 l 2
 493 233 495 226 495 221 c 0
 495 209 486 200 474 200 c 0
 469 200 462 202 459 206 c 2
 288 377 l 1
 117 206 l 2
 114 202 107 200 102 200 c 0
 90 200 81 209 81 221 c 0
 81 226 83 233 87 236 c 2
 258 407 l 1
 87 578 l 2
 83 581 81 589 81 594 c 0
 81 606 90 614 102 614 c 0
EndSplineSet
Validated: 1
EndChar

StartChar: y
Encoding: 121 121 85
Width: 576
VWidth: 200
Flags: W
HStem: 107 21G<96 104.5> 594 20G<96.5 108 468 480>
VStem: 81 42<509 613.993> 453 42<509 613.994>
LayerCount: 2
Back
Fore
SplineSet
102 614 m 0
 114 614 123 606 123 594 c 0
 123 509 l 1
 288 344 l 1
 453 509 l 1
 453 594 l 2
 453 606 462 614 474 614 c 0
 486 614 495 606 495 594 c 0
 495 500 l 2
 495 495 492 488 489 485 c 2
 305 302 l 2
 304 300 303 298 301 297 c 2
 117 113 l 2
 114 110 107 107 102 107 c 0
 90 107 81 116 81 128 c 0
 81 133 84 140 87 143 c 2
 258 314 l 1
 87 485 l 2
 84 488 81 495 81 500 c 2
 81 594 l 2
 81 605 91 614 102 614 c 0
EndSplineSet
Validated: 1
EndChar

StartChar: z
Encoding: 122 122 86
Width: 576
VWidth: 200
Flags: W
HStem: 200 42<153 494.993> 572 42<81.0066 423>
LayerCount: 2
Back
Fore
SplineSet
102 614 m 0
 474 614 l 2
 486 614 495 605 495 593 c 0
 495 588 492 581 489 578 c 2
 153 242 l 1
 474 242 l 2
 486 242 495 233 495 221 c 0
 495 209 486 200 474 200 c 0
 102 200 l 2
 90 200 81 209 81 221 c 0
 81 226 84 233 87 236 c 2
 423 572 l 1
 102 572 l 2
 90 572 81 581 81 593 c 0
 81 605 90 614 102 614 c 0
EndSplineSet
Validated: 1
EndChar

StartChar: sterling
Encoding: 163 163 87
Width: 576
VWidth: 200
Flags: W
HStem: 200 42<157 233 343 541.993> 479 42<220.007 313 355 448.993> 665 42<436 541.993>
VStem: 313 42<323 479 521 584>
LayerCount: 2
Back
Fore
SplineSet
427 707 m 1
 520 707 l 2
 521 707 l 0
 533 707 542 698 542 686 c 0
 542 674 533 665 521 665 c 0
 520 665 l 2
 436 665 l 1
 355 584 l 1
 355 521 l 1
 427 521 l 2
 428 521 l 0
 440 521 449 512 449 500 c 0
 449 488 440 479 428 479 c 0
 427 479 l 2
 355 479 l 1
 355 314 l 2
 355 309 352 302 349 299 c 2
 318 268 l 1
 343 242 l 1
 520 242 l 2
 521 242 l 0
 533 242 542 233 542 221 c 0
 542 209 533 200 521 200 c 0
 520 200 l 2
 334 200 l 2
 329 200 323 203 320 206 c 2
 288 238 l 1
 256 206 l 2
 253 203 246 200 241 200 c 2
 148 200 l 2
 143 200 136 203 133 206 c 2
 40 299 l 2
 37 302 34 309 34 314 c 0
 34 319 37 326 40 329 c 2
 133 422 l 2
 136 425 143 428 148 428 c 0
 153 428 160 425 163 422 c 2
 288 297 l 1
 313 323 l 1
 313 479 l 1
 241 479 l 2
 229 479 220 488 220 500 c 0
 220 512 229 521 241 521 c 0
 313 521 l 1
 313 593 l 2
 313 598 317 605 320 608 c 2
 413 701 l 2
 416 704 422 707 427 707 c 1
148 377 m 1
 85 314 l 1
 157 242 l 1
 233 242 l 1
 258 268 l 1
 148 377 l 1
EndSplineSet
Validated: 1
EndChar

StartChar: pi
Encoding: 960 960 88
Width: 576
VWidth: 200
Flags: W
HStem: 200 21G<189 201 375 387> 479 42<216 360> 594 20G<471.5 480>
VStem: 174 42<200.007 449> 360 42<200.007 479>
LayerCount: 2
Back
Fore
SplineSet
474 614 m 0
 486 614 495 606 495 594 c 0
 495 589 493 581 489 578 c 2
 402 491 l 1
 402 221 l 2
 402 209 393 200 381 200 c 0
 369 200 360 209 360 221 c 0
 360 479 l 1
 216 479 l 1
 216 221 l 2
 216 209 207 200 195 200 c 0
 183 200 174 209 174 221 c 0
 174 449 l 1
 117 392 l 2
 114 389 107 386 102 386 c 0
 90 386 81 395 81 407 c 0
 81 412 84 419 87 422 c 2
 180 515 l 2
 181 516 182 516 183 517 c 0
 183 517 184 519 185 519 c 0
 186 520 188 520 189 520 c 0
 190 520 192 521 193 521 c 0
 194 521 194 521 195 521 c 2
 372 521 l 1
 459 608 l 2
 462 611 469 614 474 614 c 0
EndSplineSet
Validated: 1
EndChar

StartChar: arrowleft
Encoding: 8592 8592 89
Width: 576
VWidth: 200
Flags: W
HStem: 479 42<106 541.993>
LayerCount: 2
Back
Fore
SplineSet
241 707 m 0
 242 707 l 0
 254 707 263 698 263 686 c 0
 263 681 260 674 256 671 c 2
 106 521 l 1
 521 521 l 2
 533 521 542 512 542 500 c 0
 542 488 533 479 521 479 c 0
 106 479 l 1
 256 329 l 2
 259 326 263 319 263 314 c 0
 263 302 254 293 242 293 c 0
 237 293 230 296 227 299 c 2
 42 483 l 2
 37 486 34 494 34 500 c 0
 34 506 37 514 42 517 c 2
 227 701 l 2
 230 704 236 707 241 707 c 0
EndSplineSet
Validated: 1
EndChar

StartChar: arrowup
Encoding: 8593 8593 90
Width: 576
VWidth: 200
Flags: W
HStem: 200 21G<282 294>
VStem: 267 42<200.007 635>
LayerCount: 2
Back
Fore
SplineSet
288 707 m 0
 294 707 302 704 305 699 c 2
 489 515 l 2
 492 512 495 505 495 500 c 0
 495 488 486 479 474 479 c 0
 469 479 462 482 459 485 c 2
 309 635 l 1
 309 221 l 2
 309 209 300 200 288 200 c 0
 276 200 267 209 267 221 c 0
 267 635 l 1
 117 485 l 2
 114 482 107 479 102 479 c 0
 90 479 81 488 81 500 c 0
 81 505 84 512 87 515 c 2
 271 699 l 2
 274 704 282 707 288 707 c 0
EndSplineSet
Validated: 1
EndChar

StartChar: SF100000
Encoding: 9472 9472 91
Width: 576
VWidth: 200
Flags: W
HStem: 479 42<-58.9934 634.993>
LayerCount: 2
Back
Fore
SplineSet
-38 521 m 0
 614 521 l 2
 626 521 635 512 635 500 c 0
 635 488 626 479 614 479 c 0
 -38 479 l 2
 -50 479 -59 488 -59 500 c 0
 -59 512 -50 521 -38 521 c 0
EndSplineSet
Validated: 1
EndChar

StartChar: SF110000
Encoding: 9474 9474 92
Width: 576
VWidth: 200
Flags: W
HStem: 107 21G<282 294> 780 20G<282.5 294>
VStem: 267 42<107.007 799.993>
LayerCount: 2
Back
Fore
SplineSet
288 800 m 0
 300 800 309 792 309 780 c 0
 309 128 l 2
 309 116 300 107 288 107 c 0
 276 107 267 116 267 128 c 0
 267 780 l 2
 267 791 277 800 288 800 c 0
EndSplineSet
Validated: 1
EndChar

StartChar: uni25B3
Encoding: 9651 9651 93
Width: 576
VWidth: 200
Flags: W
HStem: 200 42<60 517>
LayerCount: 2
Back
Fore
SplineSet
288 521 m 0
 293 521 300 518 303 515 c 2
 582 236 l 2
 585 233 588 226 588 221 c 0
 588 209 579 200 567 200 c 2
 12 200 l 2
 11 200 10 200 9 200 c 0
 1 200 -7 206 -10 213 c 0
 -11 213 l 0
 -12 215 -12 219 -12 221 c 0
 -12 227 -9 235 -4 238 c 2
 273 515 l 2
 276 518 283 521 288 521 c 0
288 470 m 1
 60 242 l 1
 517 242 l 1
 288 470 l 1
EndSplineSet
Validated: 1
EndChar

StartChar: uni25FB
Encoding: 9723 9723 94
Width: 576
VWidth: 200
Flags: W
HStem: 200 42<76 500> 758 42<76 500>
VStem: 34 42<242 758> 500 42<242 758>
LayerCount: 2
Back
Fore
SplineSet
56 800 m 0
 520 800 l 2
 532 800 542 791 542 779 c 2
 542 221 l 2
 542 209 532 200 520 200 c 2
 58 200 l 2
 57 200 57 200 56 200 c 0
 51 200 43 203 40 206 c 0
 37 209 34 216 34 221 c 0
 34 222 34 223 34 224 c 2
 34 779 l 2
 34 791 44 800 56 800 c 0
76 758 m 1
 76 242 l 1
 500 242 l 1
 500 758 l 1
 76 758 l 1
EndSplineSet
Validated: 1
EndChar

StartChar: backslash
Encoding: 92 92 96
Width: 576
VWidth: 0
Flags: W
HStem: 200 21G<518.5 527>
LayerCount: 2
Back
Fore
SplineSet
55 707 m 0
 60 707 67 705 70 701 c 2
 535 236 l 2
 539 233 542 226 542 221 c 0
 542 209 533 200 521 200 c 0
 516 200 509 202 506 206 c 2
 41 671 l 2
 37 674 34 681 34 686 c 0
 34 698 43 707 55 707 c 0
EndSplineSet
Validated: 1
EndChar

StartChar: asciicircum
Encoding: 94 94 97
Width: 576
VWidth: 0
Flags: W
HStem: 479 228
LayerCount: 2
Back
Fore
SplineSet
288 707 m 0
 293 707 300 704 303 701 c 2
 489 515 l 2
 492 512 495 505 495 500 c 0
 495 488 486 479 474 479 c 0
 469 479 462 482 459 485 c 2
 288 656 l 1
 117 485 l 2
 114 482 107 479 102 479 c 0
 90 479 81 488 81 500 c 0
 81 505 84 512 87 515 c 2
 273 701 l 2
 276 704 283 707 288 707 c 0
EndSplineSet
Validated: 1
EndChar

StartChar: grave
Encoding: 96 96 98
Width: 576
VWidth: 0
Flags: W
HStem: 572 228
VStem: 220 40<789 799.967> 316 40<572.033 584>
LayerCount: 2
Back
Fore
SplineSet
242 800 m 0
 249 800 257 795 260 789 c 2
 353 603 l 2
 354 600 356 596 356 593 c 0
 356 581 347 572 335 572 c 0
 328 572 319 577 316 584 c 2
 223 770 l 2
 222 773 220 776 220 779 c 0
 220 791 229 800 241 800 c 0
 242 800 l 0
EndSplineSet
Validated: 1
EndChar

StartChar: braceleft
Encoding: 123 123 99
Width: 576
VWidth: 0
Flags: W
HStem: 200 42<297 401.993> 758 42<297 401.993>
VStem: 174 228
LayerCount: 2
Back
Fore
SplineSet
288 800 m 0
 381 800 l 2
 393 800 402 791 402 779 c 0
 402 767 393 758 381 758 c 0
 297 758 l 1
 225 686 l 1
 303 608 l 2
 306 605 309 598 309 593 c 0
 309 588 306 581 303 578 c 2
 225 500 l 1
 303 422 l 2
 306 419 309 412 309 407 c 0
 309 402 306 395 303 392 c 2
 225 314 l 1
 297 242 l 1
 381 242 l 2
 393 242 402 233 402 221 c 0
 402 209 393 200 381 200 c 0
 288 200 l 2
 283 200 276 203 273 206 c 2
 180 299 l 2
 177 302 174 309 174 314 c 0
 174 319 177 326 180 329 c 2
 258 407 l 1
 180 485 l 2
 177 488 174 495 174 500 c 0
 174 505 177 512 180 515 c 2
 258 593 l 1
 180 671 l 2
 177 674 174 681 174 686 c 0
 174 691 177 698 180 701 c 2
 273 794 l 2
 276 797 283 800 288 800 c 0
EndSplineSet
Validated: 1
EndChar

StartChar: bar
Encoding: 124 124 100
Width: 576
VWidth: 0
Flags: W
HStem: 107 21G<282 294> 780 20G<282.5 294>
VStem: 267 42<107.007 799.993>
LayerCount: 2
Back
Fore
SplineSet
288 800 m 0
 300 800 309 791 309 779 c 0
 309 128 l 2
 309 116 300 107 288 107 c 0
 276 107 267 116 267 128 c 0
 267 779 l 2
 267 790 277 800 288 800 c 0
EndSplineSet
Validated: 1
EndChar

StartChar: braceright
Encoding: 125 125 101
Width: 576
VWidth: 0
Flags: W
HStem: 200 42<174.007 279> 758 42<174.007 279>
VStem: 174 228
LayerCount: 2
Back
Fore
SplineSet
195 800 m 0
 288 800 l 2
 293 800 300 797 303 794 c 2
 396 701 l 2
 399 698 402 691 402 686 c 0
 402 681 399 674 396 671 c 2
 318 593 l 1
 396 515 l 2
 399 512 402 505 402 500 c 0
 402 495 399 488 396 485 c 2
 318 407 l 1
 396 329 l 2
 399 326 402 319 402 314 c 0
 402 309 399 302 396 299 c 2
 303 206 l 2
 300 203 293 200 288 200 c 2
 195 200 l 2
 183 200 174 209 174 221 c 0
 174 233 183 242 195 242 c 0
 279 242 l 1
 351 314 l 1
 273 392 l 2
 270 395 267 402 267 407 c 0
 267 412 270 419 273 422 c 2
 351 500 l 1
 273 578 l 2
 270 581 267 588 267 593 c 0
 267 598 270 605 273 608 c 2
 351 686 l 1
 279 758 l 1
 195 758 l 2
 183 758 174 767 174 779 c 0
 174 791 183 800 195 800 c 0
EndSplineSet
Validated: 1
EndChar

StartChar: asciitilde
Encoding: 126 126 102
Width: 576
VWidth: 0
Flags: W
HStem: 386 228
LayerCount: 2
Back
Fore
SplineSet
195 614 m 0
 200 614 207 611 210 608 c 2
 381 437 l 1
 459 515 l 2
 462 518 469 521 474 521 c 0
 486 521 495 512 495 500 c 0
 495 495 492 488 489 485 c 2
 396 392 l 2
 393 389 386 386 381 386 c 0
 376 386 369 389 366 392 c 2
 195 563 l 1
 117 485 l 2
 114 482 107 479 102 479 c 0
 90 479 81 488 81 500 c 0
 81 505 84 512 87 515 c 2
 180 608 l 2
 183 611 190 614 195 614 c 0
EndSplineSet
Validated: 1
EndChar
